<svg version="1.1" xmlns="http://www.w3.org/2000/svg" viewBox="0 0 528.683201789856 466" width="528.683201789856" height="466">
  <!-- svg-source:excalidraw -->
  
  <defs>
    <style class="style-fonts">
      @font-face {
        font-family: "Virgil";
        src: url("https://file%2B.vscode-resource.vscode-cdn.net/d%3A/Tools/vsc/data/extensions/pomdtr.excalidraw-editor-3.7.4/public//dist/excalidraw-assets/Virgil.woff2");
      }
      @font-face {
        font-family: "Cascadia";
        src: url("https://file%2B.vscode-resource.vscode-cdn.net/d%3A/Tools/vsc/data/extensions/pomdtr.excalidraw-editor-3.7.4/public//dist/excalidraw-assets/Cascadia.woff2");
      }
      @font-face {
        font-family: "Assistant";
        src: url("https://file%2B.vscode-resource.vscode-cdn.net/d%3A/Tools/vsc/data/extensions/pomdtr.excalidraw-editor-3.7.4/public//dist/excalidraw-assets/Assistant-Regular.woff2");
      }
    </style>
    
  </defs>
  <rect x="0" y="0" width="528.683201789856" height="466" fill="#ffffff"></rect><g stroke-linecap="round" transform="translate(10 46.5) rotate(0 28.5 29)"><path d="M36.25 7.5 C39.49 12.04, 40.52 15.9, 49.75 22.5 M36.25 7.5 C41.34 11.9, 44.54 16.81, 49.75 22.5 M49.75 22.5 C57.95 30.72, 56.32 29, 49.75 37.5 M49.75 22.5 C56.85 30.58, 55.72 28.25, 49.75 37.5 M49.75 37.5 C46.34 43.23, 41.51 45.59, 36.25 50.5 M49.75 37.5 C44.31 41.57, 40.41 45.71, 36.25 50.5 M36.25 50.5 C28.26 57.96, 28.78 58.01, 21.75 50.5 M36.25 50.5 C27.03 60.03, 30.65 57.92, 21.75 50.5 M21.75 50.5 C17.62 45.39, 11.61 40.14, 7.25 37.5 M21.75 50.5 C16.66 45.95, 10.04 41.32, 7.25 37.5 M7.25 37.5 C-0.28 31.45, 0.11 28.01, 7.25 22.5 M7.25 37.5 C1.93 32.3, 2 27.99, 7.25 22.5 M7.25 22.5 C13.86 16.92, 18.88 10.12, 21.75 7.5 M7.25 22.5 C12.55 16.58, 17.98 12.24, 21.75 7.5 M21.75 7.5 C27.05 -1.59, 29.26 1.55, 36.25 7.5 M21.75 7.5 C28.57 -1.57, 27.22 -0.78, 36.25 7.5" stroke="#1e1e1e" stroke-width="2" fill="none"></path></g><g stroke-linecap="round" transform="translate(12 15.5) rotate(0 26 15.5)"><path d="M37.36 2.32 C42.18 3.37, 47.2 5.93, 49.45 8.92 C51.7 11.91, 52.28 17.09, 50.85 20.27 C49.42 23.46, 45.54 26.27, 40.86 28.03 C36.17 29.79, 28.3 31.23, 22.74 30.85 C17.18 30.46, 11.42 28.03, 7.52 25.69 C3.61 23.35, -0.43 20.07, -0.7 16.8 C-0.97 13.53, 2.39 8.64, 5.87 6.05 C9.36 3.47, 14.68 1.98, 20.21 1.28 C25.74 0.59, 35.71 1.55, 39.07 1.87 C42.44 2.19, 40.72 3.08, 40.41 3.19 M19.9 0.32 C24.98 -0.33, 33.1 0.01, 37.91 1.78 C42.73 3.55, 46.44 7.87, 48.77 10.94 C51.09 14, 53.25 17.36, 51.85 20.16 C50.45 22.96, 45.15 25.87, 40.36 27.73 C35.57 29.59, 28.8 31.69, 23.09 31.31 C17.38 30.93, 10.19 27.81, 6.11 25.45 C2.04 23.1, -1.29 20.49, -1.37 17.18 C-1.46 13.87, 1.89 8.31, 5.6 5.58 C9.32 2.86, 18.66 1.52, 20.9 0.82 C23.15 0.12, 19.1 1.05, 19.08 1.41" stroke="#1e1e1e" stroke-width="2" fill="none"></path></g><g stroke-linecap="round" transform="translate(338.5 43) rotate(0 28.5 29)"><path d="M36.25 7.5 C41.29 14.18, 45.71 19.68, 49.75 22.5 M36.25 7.5 C40.29 11.89, 43.1 15.05, 49.75 22.5 M49.75 22.5 C56.87 30.5, 55.89 28.48, 49.75 37.5 M49.75 22.5 C57.56 32.03, 56.28 31.05, 49.75 37.5 M49.75 37.5 C45.49 43.22, 38.85 45.83, 36.25 50.5 M49.75 37.5 C45.93 40.71, 42.71 44.07, 36.25 50.5 M36.25 50.5 C27.28 59.76, 30.43 57.93, 21.75 50.5 M36.25 50.5 C29.71 56.66, 29.87 58.7, 21.75 50.5 M21.75 50.5 C19.45 47.27, 13.8 44.3, 7.25 37.5 M21.75 50.5 C16.94 46.98, 12.34 41, 7.25 37.5 M7.25 37.5 C1.68 32, 1.74 28.25, 7.25 22.5 M7.25 37.5 C1.46 31.46, -0.32 31.66, 7.25 22.5 M7.25 22.5 C12.6 17.63, 16.22 13.9, 21.75 7.5 M7.25 22.5 C9.89 17.84, 14.66 15.62, 21.75 7.5 M21.75 7.5 C28.63 -1.36, 27.45 -0.68, 36.25 7.5 M21.75 7.5 C28.56 1.11, 28.34 1.04, 36.25 7.5" stroke="#1e1e1e" stroke-width="2" fill="none"></path></g><g stroke-linecap="round" transform="translate(340.5 12) rotate(0 26 15.5)"><path d="M35.3 1.53 C40.46 2.48, 46.54 4.89, 49.15 7.71 C51.77 10.53, 52.11 15.24, 51 18.46 C49.9 21.68, 46.91 24.9, 42.52 27.03 C38.13 29.16, 30.13 31.27, 24.67 31.24 C19.21 31.21, 13.72 28.93, 9.74 26.84 C5.75 24.75, 1.72 21.94, 0.76 18.69 C-0.2 15.43, 1.1 10.21, 3.99 7.3 C6.88 4.39, 12.29 2.22, 18.12 1.23 C23.95 0.23, 34.99 0.87, 38.97 1.32 C42.95 1.76, 42.31 3.58, 42.01 3.88 M24.43 1.32 C29.93 1.08, 38.97 1.73, 43.57 3.47 C48.17 5.21, 51.08 8.42, 52.02 11.77 C52.96 15.12, 52.14 20.6, 49.22 23.56 C46.3 26.52, 40.03 28.26, 34.49 29.53 C28.95 30.79, 21.09 32.27, 15.98 31.17 C10.86 30.08, 6.33 25.91, 3.8 22.95 C1.27 20, 0.17 16.52, 0.8 13.44 C1.43 10.36, 3.47 6.54, 7.59 4.48 C11.71 2.42, 22.47 2.03, 25.51 1.09 C28.54 0.14, 25.56 -1.51, 25.81 -1.18" stroke="#1e1e1e" stroke-width="2" fill="none"></path></g><g stroke-linecap="round" transform="translate(258.5 284) rotate(0 28.5 29)"><path d="M36.25 7.5 C40.58 12.34, 45.95 19.43, 49.75 22.5 M36.25 7.5 C40.67 12.86, 44.71 16.88, 49.75 22.5 M49.75 22.5 C57.49 31.76, 56.38 30.91, 49.75 37.5 M49.75 22.5 C58.91 30.5, 56.63 31.09, 49.75 37.5 M49.75 37.5 C44.31 41.79, 38.96 45.55, 36.25 50.5 M49.75 37.5 C44.91 42.2, 42.37 45.21, 36.25 50.5 M36.25 50.5 C29.62 56.84, 29.75 58.6, 21.75 50.5 M36.25 50.5 C27.99 57.26, 26.86 59.61, 21.75 50.5 M21.75 50.5 C17.87 44.56, 13.71 42.16, 7.25 37.5 M21.75 50.5 C17.16 46.49, 11.79 39.82, 7.25 37.5 M7.25 37.5 C1.27 31.27, -0.27 31.44, 7.25 22.5 M7.25 37.5 C-0.17 31.37, -1.73 31.38, 7.25 22.5 M7.25 22.5 C10.17 18.93, 16.2 12.43, 21.75 7.5 M7.25 22.5 C10.24 18.4, 12.86 15.43, 21.75 7.5 M21.75 7.5 C28.62 0.97, 28.42 0.9, 36.25 7.5 M21.75 7.5 C27.16 -1.67, 26.82 -0.4, 36.25 7.5" stroke="#1e1e1e" stroke-width="2" fill="none"></path></g><g stroke-linecap="round" transform="translate(260.5 253) rotate(0 26 15.5)"><path d="M31.6 0.37 C36.8 0.88, 43.9 3.01, 47.17 5.74 C50.43 8.46, 51.43 13.35, 51.19 16.71 C50.95 20.06, 49.36 23.37, 45.72 25.87 C42.08 28.37, 35.02 31.33, 29.37 31.73 C23.72 32.13, 16.48 30.16, 11.84 28.26 C7.2 26.35, 3.2 23.59, 1.54 20.29 C-0.13 16.99, -0.22 11.56, 1.86 8.44 C3.93 5.33, 8.63 2.92, 13.99 1.61 C19.36 0.3, 30.17 0.53, 34.06 0.56 C37.94 0.59, 37.32 1.62, 37.31 1.78 M37.56 0.61 C42.4 1.86, 48.04 6.39, 50.18 9.47 C52.32 12.55, 52.21 15.8, 50.42 19.1 C48.63 22.4, 43.86 27.39, 39.42 29.29 C34.98 31.19, 29.03 30.9, 23.79 30.49 C18.55 30.09, 12.18 29.03, 7.98 26.87 C3.78 24.71, -0.82 20.73, -1.39 17.52 C-1.96 14.32, 1.08 10.72, 4.56 7.64 C8.04 4.55, 13.84 -0.21, 19.47 -0.99 C25.11 -1.76, 35.24 2.74, 38.36 2.98 C41.48 3.22, 38.42 0.31, 38.18 0.45" stroke="#1e1e1e" stroke-width="2" fill="none"></path></g><g stroke-linecap="round"><g transform="translate(71.48666879712414 72.03493798601784) rotate(0 130.6568257556993 -0.01847563388972162)"><path d="M0.57 0.43 C44.11 0.35, 217.46 -0.61, 260.91 -0.63 M-0.59 -0.39 C42.79 -0.3, 216.24 0.23, 259.75 0.59" stroke="#1e1e1e" stroke-width="2" fill="none"></path></g><g transform="translate(71.48666879712414 72.03493798601784) rotate(0 130.6568257556993 -0.01847563388972162)"><path d="M231.5 10.7 C239.85 7.17, 245.75 4.98, 259.75 0.59 M231.5 10.7 C240.99 8.51, 249.62 4.8, 259.75 0.59" stroke="#1e1e1e" stroke-width="2" fill="none"></path></g><g transform="translate(71.48666879712414 72.03493798601784) rotate(0 130.6568257556993 -0.01847563388972162)"><path d="M231.61 -9.82 C239.9 -7.82, 245.78 -4.47, 259.75 0.59 M231.61 -9.82 C240.95 -5.34, 249.54 -2.38, 259.75 0.59" stroke="#1e1e1e" stroke-width="2" fill="none"></path></g></g><mask></mask><g transform="translate(22 116.5) rotate(0 29.889976501464844 12.5)"><text x="0" y="0" font-family="Comic Sans MS, Segoe UI Emoji" font-size="20px" fill="#1e1e1e" text-anchor="start" style="white-space: pre;" direction="ltr" dominant-baseline="text-before-edge">A: you</text></g><g transform="translate(198.08842945098877 356) rotate(0 92.51990509033203 50)"><text x="92.51990509033203" y="0" font-family="Comic Sans MS, Segoe UI Emoji" font-size="20px" fill="#1e1e1e" text-anchor="middle" style="white-space: pre;" direction="ltr" dominant-baseline="text-before-edge">B:</text><text x="92.51990509033203" y="25" font-family="Comic Sans MS, Segoe UI Emoji" font-size="20px" fill="#1e1e1e" text-anchor="middle" style="white-space: pre;" direction="ltr" dominant-baseline="text-before-edge">your senior/</text><text x="92.51990509033203" y="50" font-family="Comic Sans MS, Segoe UI Emoji" font-size="20px" fill="#1e1e1e" text-anchor="middle" style="white-space: pre;" direction="ltr" dominant-baseline="text-before-edge">your manager/</text><text x="92.51990509033203" y="75" font-family="Comic Sans MS, Segoe UI Emoji" font-size="20px" fill="#1e1e1e" text-anchor="middle" style="white-space: pre;" direction="ltr" dominant-baseline="text-before-edge">person you respect</text></g><g transform="translate(352.0833330154419 117) rotate(0 83.29993438720703 12.5)"><text x="0" y="0" font-family="Comic Sans MS, Segoe UI Emoji" font-size="20px" fill="#1e1e1e" text-anchor="start" style="white-space: pre;" direction="ltr" dominant-baseline="text-before-edge">C: non-Indonesian</text></g><g transform="translate(135.08673572540283 10) rotate(0 78.929931640625 25)"><text x="78.929931640625" y="0" font-family="Comic Sans MS, Segoe UI Emoji" font-size="20px" fill="#f08c00" text-anchor="middle" style="white-space: pre;" direction="ltr" dominant-baseline="text-before-edge">address B using</text><text x="78.929931640625" y="25" font-family="Comic Sans MS, Segoe UI Emoji" font-size="20px" fill="#f08c00" text-anchor="middle" style="white-space: pre;" direction="ltr" dominant-baseline="text-before-edge">their name</text></g><g stroke-linecap="round"><g transform="translate(63.064518248745 94.43434985215424) rotate(0 96.46200351041045 104.53866309467008)"><path d="M-0.37 0.55 C31.9 35.26, 161.74 174.49, 193.92 209.34 M1.63 -0.21 C33.8 34.64, 161.79 172.72, 193.49 207.35" stroke="#1e1e1e" stroke-width="2" fill="none"></path></g><g transform="translate(63.064518248745 94.43434985215424) rotate(0 96.46200351041045 104.53866309467008)"><path d="M166.84 193.58 C176.52 199.79, 184.69 202.28, 193.49 207.35 M166.84 193.58 C175.3 198.02, 185.4 202.4, 193.49 207.35" stroke="#1e1e1e" stroke-width="2" fill="none"></path></g><g transform="translate(63.064518248745 94.43434985215424) rotate(0 96.46200351041045 104.53866309467008)"><path d="M181.93 179.67 C186.84 190.35, 190.11 197.35, 193.49 207.35 M181.93 179.67 C185.2 188.89, 190.06 198.11, 193.49 207.35" stroke="#1e1e1e" stroke-width="2" fill="none"></path></g></g><mask></mask><g transform="translate(57.94885224568861 201.3855346905956) rotate(48.12081902078883 78.929931640625 25)"><text x="78.929931640625" y="0" font-family="Comic Sans MS, Segoe UI Emoji" font-size="20px" fill="#f08c00" text-anchor="middle" style="white-space: pre;" direction="ltr" dominant-baseline="text-before-edge">address B using</text><text x="78.929931640625" y="25" font-family="Comic Sans MS, Segoe UI Emoji" font-size="20px" fill="#f08c00" text-anchor="middle" style="white-space: pre;" direction="ltr" dominant-baseline="text-before-edge">their honorific</text></g></svg>