<svg version="1.1" xmlns="http://www.w3.org/2000/svg" viewBox="0 0 655.9598693847656 576.0000305175781" width="655.9598693847656" height="576.0000305175781">
  <!-- svg-source:excalidraw -->
  
  <defs>
    <style class="style-fonts">
      @font-face {
        font-family: "Virgil";
        src: url("https://excalidraw.com/Virgil.woff2");
      }
      @font-face {
        font-family: "Cascadia";
        src: url("https://excalidraw.com/Cascadia.woff2");
      }
      @font-face {
        font-family: "Assistant";
        src: url("https://excalidraw.com/Assistant-Regular.woff2");
      }
    </style>
    
  </defs>
  <rect x="0" y="0" width="655.9598693847656" height="576.0000305175781" fill="#ffffff"></rect><g transform="translate(220.99993896484375 78.99996948242188) rotate(0 37.71996307373047 12.5)"><text x="0" y="17.52" font-family="Comic Sans MS, Segoe UI Emoji" font-size="20px" fill="#1e1e1e" text-anchor="start" style="white-space: pre;" direction="ltr" dominant-baseline="alphabetic">capture</text></g><g transform="translate(427.9999694824219 10) rotate(0 25.449974060058594 12.5)"><text x="0" y="17.52" font-family="Comic Sans MS, Segoe UI Emoji" font-size="20px" fill="#1e1e1e" text-anchor="start" style="white-space: pre;" direction="ltr" dominant-baseline="alphabetic">ideas</text></g><g transform="translate(428.0000305175781 81.99996948242188) rotate(0 96.44990539550781 12.5)"><text x="0" y="17.52" font-family="Comic Sans MS, Segoe UI Emoji" font-size="20px" fill="#1e1e1e" text-anchor="start" style="white-space: pre;" direction="ltr" dominant-baseline="alphabetic">received information</text></g><g transform="translate(419.0000305175781 142.99996948242188) rotate(0 74.66993713378906 12.5)"><text x="0" y="17.52" font-family="Comic Sans MS, Segoe UI Emoji" font-size="20px" fill="#1e1e1e" text-anchor="start" style="white-space: pre;" direction="ltr" dominant-baseline="alphabetic">raw information</text></g><g stroke-linecap="round"><g transform="translate(289.9999694824219 73) rotate(0 63.5 -26.069724825241053)"><path d="M-0.37 -0.26 C7.52 -7.08, 25.55 -33.46, 46.86 -42.01 C68.17 -50.55, 114.3 -50, 127.47 -51.53 M1.64 -1.44 C9.49 -8.48, 25.48 -34.92, 46.36 -43.61 C67.25 -52.29, 113.76 -51.95, 126.95 -53.55" stroke="#1e1e1e" stroke-width="2" fill="none"></path></g><g transform="translate(289.9999694824219 73) rotate(0 63.5 -26.069724825241053)"><path d="M104.04 -43.55 C109.68 -44.65, 117.75 -47.92, 126.95 -53.55 M104.04 -43.55 C111.98 -47.5, 119.91 -50.09, 126.95 -53.55" stroke="#1e1e1e" stroke-width="2" fill="none"></path></g><g transform="translate(289.9999694824219 73) rotate(0 63.5 -26.069724825241053)"><path d="M102.97 -60.61 C108.73 -57.26, 117.08 -56.07, 126.95 -53.55 M102.97 -60.61 C111.12 -58.59, 119.43 -55.19, 126.95 -53.55" stroke="#1e1e1e" stroke-width="2" fill="none"></path></g></g><mask></mask><g stroke-linecap="round"><g transform="translate(304.9999694824219 95.20789905519621) rotate(0 56.500030517578125 0.21528222639074102)"><path d="M0.9 1.06 C19.8 0.9, 95.2 0.2, 113.79 0.09 M-0.09 0.57 C18.68 1.1, 94.68 1.26, 113.25 1.45" stroke="#1e1e1e" stroke-width="2" fill="none"></path></g><g transform="translate(304.9999694824219 95.20789905519621) rotate(0 56.500030517578125 0.21528222639074102)"><path d="M89.71 9.86 C99.27 8.19, 104.81 3.09, 113.25 1.45 M89.71 9.86 C96.06 8, 103.85 4.79, 113.25 1.45" stroke="#1e1e1e" stroke-width="2" fill="none"></path></g><g transform="translate(304.9999694824219 95.20789905519621) rotate(0 56.500030517578125 0.21528222639074102)"><path d="M89.81 -7.24 C99.49 -3.2, 104.99 -2.58, 113.25 1.45 M89.81 -7.24 C96.1 -3.99, 103.86 -2.09, 113.25 1.45" stroke="#1e1e1e" stroke-width="2" fill="none"></path></g></g><mask></mask><g stroke-linecap="round"><g transform="translate(282.9999694824219 114.99996948242188) rotate(0 61.00001525878906 20.751043395661554)"><path d="M0.75 1.13 C7.61 6.7, 20.4 26.17, 40.8 32.98 C61.2 39.79, 109.57 40.65, 123.13 42 M-0.32 0.67 C6.49 6.49, 19.73 27.97, 40.27 34.51 C60.82 41.05, 109.26 38.68, 122.95 39.92" stroke="#1e1e1e" stroke-width="2" fill="none"></path></g><g transform="translate(282.9999694824219 114.99996948242188) rotate(0 61.00001525878906 20.751043395661554)"><path d="M99.26 47.91 C107.51 46.96, 111.94 45.36, 122.95 39.92 M99.26 47.91 C107.93 44.46, 115.05 42.52, 122.95 39.92" stroke="#1e1e1e" stroke-width="2" fill="none"></path></g><g transform="translate(282.9999694824219 114.99996948242188) rotate(0 61.00001525878906 20.751043395661554)"><path d="M99.67 30.81 C107.74 34.44, 112.06 37.42, 122.95 39.92 M99.67 30.81 C108.22 33.2, 115.2 37.1, 122.95 39.92" stroke="#1e1e1e" stroke-width="2" fill="none"></path></g></g><mask></mask><g stroke-linecap="round" transform="translate(187.99993896484375 235.99996948242188) rotate(0 82.5 31.5)"><path d="M15.75 0 C47.58 -1.35, 82.74 0.94, 149.25 0 M15.75 0 C42.76 -1.65, 70.11 -0.19, 149.25 0 M149.25 0 C159.01 0.29, 164.03 7.13, 165 15.75 M149.25 0 C158.7 2.03, 164.11 3.81, 165 15.75 M165 15.75 C164.47 24.61, 165.78 36.18, 165 47.25 M165 15.75 C164.73 28.89, 164.9 40.25, 165 47.25 M165 47.25 C165.44 57.58, 159.47 62.59, 149.25 63 M165 47.25 C162.73 56.84, 158.18 64.82, 149.25 63 M149.25 63 C113.49 63.24, 79.48 63.37, 15.75 63 M149.25 63 C101.95 62.33, 56.48 62.45, 15.75 63 M15.75 63 C5.38 64.86, 0.44 56.82, 0 47.25 M15.75 63 C7.08 61.28, 0.16 55.78, 0 47.25 M0 47.25 C1.33 39.13, -1.49 33.75, 0 15.75 M0 47.25 C-0.03 38.3, 0.77 29.59, 0 15.75 M0 15.75 C-1.07 4.41, 6.47 -1.03, 15.75 0 M0 15.75 C-0.92 6.61, 3.5 0.44, 15.75 0" stroke="#1e1e1e" stroke-width="2" fill="none"></path></g><g transform="translate(234.3799819946289 254.99996948242188) rotate(0 36.119956970214844 12.5)"><text x="36.119956970214844" y="17.52" font-family="Comic Sans MS, Segoe UI Emoji" font-size="20px" fill="#1e1e1e" text-anchor="middle" style="white-space: pre;" direction="ltr" dominant-baseline="alphabetic">process</text></g><g stroke-linecap="round"><g transform="translate(258.1951191895308 109.99996948242188) rotate(0 0.8155248824652404 60.5)"><path d="M0.72 -0.93 C1.17 19.46, 2.64 101, 2.7 121.19 M-0.36 1.2 C0.03 21.91, 2.25 102.85, 2.31 122.82" stroke="#1e1e1e" stroke-width="2" fill="none"></path></g><g transform="translate(258.1951191895308 109.99996948242188) rotate(0 0.8155248824652404 60.5)"><path d="M-6.64 99.48 C-5.72 108.22, -1.17 112.49, 2.31 122.82 M-6.64 99.48 C-4.44 105.23, -3.3 109.97, 2.31 122.82" stroke="#1e1e1e" stroke-width="2" fill="none"></path></g><g transform="translate(258.1951191895308 109.99996948242188) rotate(0 0.8155248824652404 60.5)"><path d="M10.46 99.19 C6.24 108.12, 5.66 112.48, 2.31 122.82 M10.46 99.19 C8.7 105, 5.87 109.81, 2.31 122.82" stroke="#1e1e1e" stroke-width="2" fill="none"></path></g></g><mask></mask><g stroke-linecap="round"><g transform="translate(499.0000305175781 271.3314735924548) rotate(0 -68.00003051757812 -1.0119945177266914)"><path d="M-0.57 0.56 C-23.22 0.25, -114.39 -2.57, -136.85 -2.92 M1.33 -0.19 C-20.86 -0.29, -111.74 -1.28, -134.58 -1.86" stroke="#1e1e1e" stroke-width="2" fill="none"></path></g><g transform="translate(499.0000305175781 271.3314735924548) rotate(0 -68.00003051757812 -1.0119945177266914)"><path d="M-110.95 -10.01 C-115.35 -9.72, -123.04 -5.35, -134.58 -1.86 M-110.95 -10.01 C-118.51 -6.97, -127.16 -3.8, -134.58 -1.86" stroke="#1e1e1e" stroke-width="2" fill="none"></path></g><g transform="translate(499.0000305175781 271.3314735924548) rotate(0 -68.00003051757812 -1.0119945177266914)"><path d="M-111.24 7.09 C-115.43 3.57, -123.05 4.14, -134.58 -1.86 M-111.24 7.09 C-118.62 4.35, -127.17 1.73, -134.58 -1.86" stroke="#1e1e1e" stroke-width="2" fill="none"></path></g></g><mask></mask><g transform="translate(514.9999694824219 231.99996948242188) rotate(0 65.47994995117188 37.5)"><text x="0" y="17.52" font-family="Comic Sans MS, Segoe UI Emoji" font-size="20px" fill="#1e1e1e" text-anchor="start" style="white-space: pre;" direction="ltr" dominant-baseline="alphabetic">luangin waktu</text><text x="0" y="42.519999999999996" font-family="Comic Sans MS, Segoe UI Emoji" font-size="20px" fill="#1e1e1e" text-anchor="start" style="white-space: pre;" direction="ltr" dominant-baseline="alphabetic">1-2 jam</text><text x="0" y="67.52" font-family="Comic Sans MS, Segoe UI Emoji" font-size="20px" fill="#1e1e1e" text-anchor="start" style="white-space: pre;" direction="ltr" dominant-baseline="alphabetic">tiap hari</text></g><g transform="translate(41.999969482421875 428.9999694824219) rotate(0 39.619956970214844 12.5)"><text x="0" y="17.52" font-family="Comic Sans MS, Segoe UI Emoji" font-size="20px" fill="#1e1e1e" text-anchor="start" style="white-space: pre;" direction="ltr" dominant-baseline="alphabetic">projects</text></g><g transform="translate(220.38001251220703 432.4999694824219) rotate(0 23.1099853515625 12.5)"><text x="0" y="17.52" font-family="Comic Sans MS, Segoe UI Emoji" font-size="20px" fill="#1e1e1e" text-anchor="start" style="white-space: pre;" direction="ltr" dominant-baseline="alphabetic">area</text></g><g transform="translate(403.3801956176758 425.4999694824219) rotate(0 33.819969177246094 12.5)"><text x="0" y="17.52" font-family="Comic Sans MS, Segoe UI Emoji" font-size="20px" fill="#1e1e1e" text-anchor="start" style="white-space: pre;" direction="ltr" dominant-baseline="alphabetic">archive</text></g><g stroke-linecap="round"><g transform="translate(189.99996948242188 313.9999694824219) rotate(0 -47 53)"><path d="M-0.82 0.65 C-16.68 18.3, -78.65 88.86, -94.08 106.26 M0.96 -0.06 C-15.17 17.18, -79.28 86.62, -95.07 104.27" stroke="#1e1e1e" stroke-width="2" fill="none"></path></g><g transform="translate(189.99996948242188 313.9999694824219) rotate(0 -47 53)"><path d="M-85.56 81.14 C-88.14 90.01, -92.52 100.27, -95.07 104.27 M-85.56 81.14 C-88.13 86.67, -89.96 91.99, -95.07 104.27" stroke="#1e1e1e" stroke-width="2" fill="none"></path></g><g transform="translate(189.99996948242188 313.9999694824219) rotate(0 -47 53)"><path d="M-72.92 92.66 C-80.49 96.93, -89.82 102.67, -95.07 104.27 M-72.92 92.66 C-78.22 95.64, -82.79 98.45, -95.07 104.27" stroke="#1e1e1e" stroke-width="2" fill="none"></path></g></g><mask></mask><g stroke-linecap="round"><g transform="translate(252.99996948242188 312.9999694824219) rotate(0 -3.5 56.500030517578125)"><path d="M0.99 -0.49 C0.11 18.43, -4.61 93.93, -5.95 112.73 M0.05 -1.79 C-0.84 17.37, -5.04 94.95, -6.34 114.13" stroke="#1e1e1e" stroke-width="2" fill="none"></path></g><g transform="translate(252.99996948242188 312.9999694824219) rotate(0 -3.5 56.500030517578125)"><path d="M-13.48 90.17 C-12.71 97.7, -10.6 101.75, -6.34 114.13 M-13.48 90.17 C-12.67 96.7, -9.86 101.13, -6.34 114.13" stroke="#1e1e1e" stroke-width="2" fill="none"></path></g><g transform="translate(252.99996948242188 312.9999694824219) rotate(0 -3.5 56.500030517578125)"><path d="M3.59 91.19 C0.21 98.61, -1.84 102.42, -6.34 114.13 M3.59 91.19 C0.26 97.36, -1.06 101.54, -6.34 114.13" stroke="#1e1e1e" stroke-width="2" fill="none"></path></g></g><mask></mask><g stroke-linecap="round"><g transform="translate(329.705596794714 309.9999694824219) rotate(0 47.1458303263077 51.5)"><path d="M-0.65 0.61 C15.37 17.69, 79.66 85.71, 95.35 102.75 M1.22 -0.12 C17.23 17.12, 79.17 86.78, 94.96 104.15" stroke="#1e1e1e" stroke-width="2" fill="none"></path></g><g transform="translate(329.705596794714 309.9999694824219) rotate(0 47.1458303263077 51.5)"><path d="M72.9 92.39 C79.25 97.11, 83.13 96.89, 94.96 104.15 M72.9 92.39 C79.38 95.98, 86.27 99.04, 94.96 104.15" stroke="#1e1e1e" stroke-width="2" fill="none"></path></g><g transform="translate(329.705596794714 309.9999694824219) rotate(0 47.1458303263077 51.5)"><path d="M85.62 80.96 C88.93 88.37, 89.75 90.9, 94.96 104.15 M85.62 80.96 C88.46 87.83, 91.68 94.19, 94.96 104.15" stroke="#1e1e1e" stroke-width="2" fill="none"></path></g></g><mask></mask><g transform="translate(10 470.0000305175781) rotate(0 72.38993835449219 25)"><text x="0" y="17.52" font-family="Comic Sans MS, Segoe UI Emoji" font-size="20px" fill="#1e1e1e" text-anchor="start" style="white-space: pre;" direction="ltr" dominant-baseline="alphabetic">- active tasks</text><text x="0" y="42.519999999999996" font-family="Comic Sans MS, Segoe UI Emoji" font-size="20px" fill="#1e1e1e" text-anchor="start" style="white-space: pre;" direction="ltr" dominant-baseline="alphabetic">- actionables</text></g><g transform="translate(183.61009216308594 466.0000305175781) rotate(0 83.11992645263672 50)"><text x="0" y="17.52" font-family="Comic Sans MS, Segoe UI Emoji" font-size="20px" fill="#1e1e1e" text-anchor="start" style="white-space: pre;" direction="ltr" dominant-baseline="alphabetic">- data</text><text x="0" y="42.519999999999996" font-family="Comic Sans MS, Segoe UI Emoji" font-size="20px" fill="#1e1e1e" text-anchor="start" style="white-space: pre;" direction="ltr" dominant-baseline="alphabetic">- information</text><text x="0" y="67.52" font-family="Comic Sans MS, Segoe UI Emoji" font-size="20px" fill="#1e1e1e" text-anchor="start" style="white-space: pre;" direction="ltr" dominant-baseline="alphabetic">- non-actionables</text><text x="0" y="92.52" font-family="Comic Sans MS, Segoe UI Emoji" font-size="20px" fill="#1e1e1e" text-anchor="start" style="white-space: pre;" direction="ltr" dominant-baseline="alphabetic">  information</text></g><g transform="translate(392.6100311279297 457.9999694824219) rotate(0 96.45990753173828 25)"><text x="0" y="17.52" font-family="Comic Sans MS, Segoe UI Emoji" font-size="20px" fill="#1e1e1e" text-anchor="start" style="white-space: pre;" direction="ltr" dominant-baseline="alphabetic">- finished tasks</text><text x="0" y="42.519999999999996" font-family="Comic Sans MS, Segoe UI Emoji" font-size="20px" fill="#1e1e1e" text-anchor="start" style="white-space: pre;" direction="ltr" dominant-baseline="alphabetic">- decomm'd projects</text></g></svg>