<svg version="1.1" xmlns="http://www.w3.org/2000/svg" viewBox="0 0 956.3999023437501 331.99999237060547" width="956.3999023437501" height="331.99999237060547">
  <!-- svg-source:excalidraw -->
  
  <defs>
    <style class="style-fonts">
      @font-face {
        font-family: "Virgil";
        src: url("https://file%2B.vscode-resource.vscode-cdn.net/d%3A/Tools/vsc/data/extensions/pomdtr.excalidraw-editor-3.7.1/public//dist/excalidraw-assets/Virgil.woff2");
      }
      @font-face {
        font-family: "Cascadia";
        src: url("https://file%2B.vscode-resource.vscode-cdn.net/d%3A/Tools/vsc/data/extensions/pomdtr.excalidraw-editor-3.7.1/public//dist/excalidraw-assets/Cascadia.woff2");
      }
      @font-face {
        font-family: "Assistant";
        src: url("https://file%2B.vscode-resource.vscode-cdn.net/d%3A/Tools/vsc/data/extensions/pomdtr.excalidraw-editor-3.7.1/public//dist/excalidraw-assets/Assistant-Regular.woff2");
      }
    </style>
    
  </defs>
  <rect x="0" y="0" width="956.3999023437501" height="331.99999237060547" fill="#ffffff"></rect><g stroke-linecap="round" transform="translate(10 112.79999542236328) rotate(0 94.79998779296875 51.099998474121094)"><path d="M6.14 6.67 C6.14 6.67, 6.14 6.67, 6.14 6.67 M6.14 6.67 C6.14 6.67, 6.14 6.67, 6.14 6.67 M1.03 24.75 C7.38 21.3, 11.92 15.04, 22.02 0.59 M1.03 24.75 C9.38 16.73, 15.85 7.16, 22.02 0.59 M1.16 36.79 C11.36 22.61, 24.61 9.49, 32.65 0.56 M1.16 36.79 C8.29 29.03, 16.44 19.38, 32.65 0.56 M1.3 48.83 C11.54 36.25, 25.98 22.1, 43.28 0.53 M1.3 48.83 C17.09 31.27, 33.41 12.79, 43.28 0.53 M0.77 61.62 C14.65 46.11, 24.29 33.7, 53.91 0.49 M0.77 61.62 C17.64 41.13, 36.19 19.35, 53.91 0.49 M0.91 73.66 C22.62 50.35, 46.14 23.13, 64.54 0.46 M0.91 73.66 C15.64 58.17, 28.54 42.39, 64.54 0.46 M1.7 84.95 C27.98 53.27, 53.77 24.81, 75.17 0.42 M1.7 84.95 C18.48 66.8, 35.53 47.3, 75.17 0.42 M5.11 93.22 C30.9 66.83, 53.48 41.25, 85.8 0.39 M5.11 93.22 C35.97 56.66, 67.45 21.33, 85.8 0.39 M10.49 99.22 C32.82 73.15, 59.71 43.64, 96.43 0.35 M10.49 99.22 C30.38 76.77, 48.92 54.16, 96.43 0.35 M19.15 101.45 C39.19 76.52, 62.9 55.14, 107.06 0.32 M19.15 101.45 C53.55 62.42, 86.62 24.69, 107.06 0.32 M28.47 102.92 C46.86 81.96, 63.11 62.21, 117.69 0.28 M28.47 102.92 C62.9 63.12, 97.36 23.19, 117.69 0.28 M39.1 102.89 C67.11 72.49, 92.25 42.48, 128.32 0.25 M39.1 102.89 C65.14 71.11, 92.21 41.88, 128.32 0.25 M49.73 102.86 C71.76 79.82, 93.95 51.05, 138.95 0.22 M49.73 102.86 C78.74 68.8, 108.75 34.51, 138.95 0.22 M60.36 102.82 C85.55 76.31, 108.25 48.34, 149.58 0.18 M60.36 102.82 C81.73 79.84, 103.44 53.56, 149.58 0.18 M70.99 102.79 C99.98 67.22, 130.97 33.72, 160.21 0.15 M70.99 102.79 C105.13 63.87, 139.62 24.05, 160.21 0.15 M81.62 102.75 C112.84 66.54, 140.21 34.69, 169.53 1.62 M81.62 102.75 C105.46 75.93, 128.75 47.56, 169.53 1.62 M92.25 102.72 C121.61 67.07, 153.4 30.56, 178.85 3.1 M92.25 102.72 C113.65 78.19, 135.94 52.77, 178.85 3.1 M102.88 102.68 C129.93 71.72, 157.53 40.54, 184.89 8.34 M102.88 102.68 C125.43 74.77, 149.05 48.52, 184.89 8.34 M113.51 102.65 C129.22 84.44, 149.1 61.41, 188.3 16.61 M113.51 102.65 C139.94 71.15, 169.57 38.39, 188.3 16.61 M124.14 102.61 C143.7 78.11, 162.4 57.36, 189.75 27.14 M124.14 102.61 C147.96 75.91, 169.89 50.16, 189.75 27.14 M134.77 102.58 C154.16 78.94, 173.95 57.1, 189.88 39.18 M134.77 102.58 C153.58 81.18, 172.8 59.13, 189.88 39.18 M145.4 102.55 C160.93 84.74, 179.11 66.06, 190.01 51.22 M145.4 102.55 C160.9 83.94, 177.41 67.3, 190.01 51.22 M156.03 102.51 C163.53 95.09, 172.51 82.36, 189.49 64.02 M156.03 102.51 C165.43 92.26, 173.9 81.06, 189.49 64.02 M167.32 101.72 C177.9 92.33, 184.86 80.22, 189.62 76.06 M167.32 101.72 C175.07 93.23, 181 84.51, 189.62 76.06" stroke="#ffd8a8" stroke-width="1" fill="none"></path><path d="M25.55 0 C62.77 1.33, 99.97 2.19, 164.05 0 M25.55 0 C55.53 -0.89, 85.2 -1.57, 164.05 0 M164.05 0 C179.86 0.9, 190.79 7.12, 189.6 25.55 M164.05 0 C181.86 -0.2, 187.62 10.19, 189.6 25.55 M189.6 25.55 C188.19 34.02, 189.88 47.43, 189.6 76.65 M189.6 25.55 C188.79 45.28, 189.05 65.94, 189.6 76.65 M189.6 76.65 C187.82 95.16, 182.45 100.71, 164.05 102.2 M189.6 76.65 C190.29 93.19, 179.02 99.91, 164.05 102.2 M164.05 102.2 C126.54 102.61, 88 102.46, 25.55 102.2 M164.05 102.2 C123.38 102.8, 84.88 102.9, 25.55 102.2 M25.55 102.2 C10.1 103.7, 1.47 93.68, 0 76.65 M25.55 102.2 C8.07 104.22, -2.04 94.75, 0 76.65 M0 76.65 C0.52 58.67, 1.04 41.56, 0 25.55 M0 76.65 C0.15 65.06, -1 54.83, 0 25.55 M0 25.55 C-1.59 7.19, 8.2 -1.92, 25.55 0 M0 25.55 C0.11 8.74, 6.8 -2.04, 25.55 0" stroke="#1e1e1e" stroke-width="2" fill="none"></path></g><g transform="translate(67.29399871826172 146.39999389648438) rotate(0 37.50598907470703 17.5)"><text x="37.50598907470703" y="0" font-family="Virgil, Segoe UI Emoji" font-size="28px" fill="#1e1e1e" text-anchor="middle" style="white-space: pre;" direction="ltr" dominant-baseline="text-before-edge">Data</text></g><g stroke-linecap="round" transform="translate(258.93330891927087 112.79999542236328) rotate(0 94.79998779296875 51.099998474121094)"><path d="M6.14 6.67 C6.14 6.67, 6.14 6.67, 6.14 6.67 M6.14 6.67 C6.14 6.67, 6.14 6.67, 6.14 6.67 M1.03 24.75 C6.63 19.23, 8.23 14.2, 22.02 0.59 M1.03 24.75 C7.8 17.39, 15.42 7.97, 22.02 0.59 M1.16 36.79 C11.75 24.08, 26.88 7.18, 32.65 0.56 M1.16 36.79 C10.66 25.32, 20.23 16.06, 32.65 0.56 M1.3 48.83 C12.23 36.98, 23.19 20.67, 43.28 0.53 M1.3 48.83 C13.05 36.48, 23.34 24.19, 43.28 0.53 M0.77 61.62 C16.28 46.78, 28.62 26.95, 53.91 0.49 M0.77 61.62 C16.04 44.41, 31.42 26.23, 53.91 0.49 M0.91 73.66 C15.3 59.18, 28.71 43.97, 64.54 0.46 M0.91 73.66 C26.44 45.07, 52.54 14.75, 64.54 0.46 M1.7 84.95 C32.35 51.84, 59.97 19.28, 75.17 0.42 M1.7 84.95 C29.98 49.81, 59.82 16.81, 75.17 0.42 M5.11 93.22 C27.56 67.34, 51.85 43.19, 85.8 0.39 M5.11 93.22 C22.88 73.15, 39.75 53.21, 85.8 0.39 M10.49 99.22 C43.25 65.95, 71.02 30.95, 96.43 0.35 M10.49 99.22 C43.57 61.16, 76.41 22.35, 96.43 0.35 M19.15 101.45 C49.95 67.74, 80.55 30.47, 107.06 0.32 M19.15 101.45 C48.17 68.25, 74.38 37.74, 107.06 0.32 M28.47 102.92 C60.99 66.71, 92.89 29.99, 117.69 0.28 M28.47 102.92 C62.68 64.75, 94.94 26.96, 117.69 0.28 M39.1 102.89 C62.79 75.41, 87.9 49.32, 128.32 0.25 M39.1 102.89 C71.14 65.84, 103.24 29.82, 128.32 0.25 M49.73 102.86 C68.21 76.59, 90.51 53.41, 138.95 0.22 M49.73 102.86 C70.72 79.09, 93.47 53.86, 138.95 0.22 M60.36 102.82 C96.94 62.3, 130.61 23.93, 149.58 0.18 M60.36 102.82 C93.82 65.13, 126.13 26.95, 149.58 0.18 M70.99 102.79 C92.4 78.11, 110.23 56.98, 160.21 0.15 M70.99 102.79 C89.37 80.73, 107.83 58.82, 160.21 0.15 M81.62 102.75 C112.12 67.08, 140.63 33.4, 169.53 1.62 M81.62 102.75 C99.42 82.67, 118.16 59.89, 169.53 1.62 M92.25 102.72 C110.59 79.77, 129.79 57.24, 178.85 3.1 M92.25 102.72 C117.62 72.74, 141.2 43.08, 178.85 3.1 M102.88 102.68 C120.49 81.17, 137.57 63.43, 184.89 8.34 M102.88 102.68 C130.01 73.82, 154.69 43.57, 184.89 8.34 M113.51 102.65 C135.76 78.62, 157.32 54.84, 188.3 16.61 M113.51 102.65 C142.62 67.95, 173.3 34.9, 188.3 16.61 M124.14 102.61 C146.99 75.15, 173.54 48.96, 189.75 27.14 M124.14 102.61 C146 76.81, 169.43 49.95, 189.75 27.14 M134.77 102.58 C154.39 80.41, 173.05 58.1, 189.88 39.18 M134.77 102.58 C147.98 87.6, 162.32 72.11, 189.88 39.18 M145.4 102.55 C155.95 90.58, 166.82 78.44, 190.01 51.22 M145.4 102.55 C161.96 84.39, 177.82 64.47, 190.01 51.22 M156.03 102.51 C165.61 91.97, 175.77 77.76, 189.49 64.02 M156.03 102.51 C164.64 93, 173.53 83.23, 189.49 64.02 M167.32 101.72 C174.02 94.66, 181.67 88.34, 189.62 76.06 M167.32 101.72 C172.67 95.94, 177.92 87.65, 189.62 76.06" stroke="#ffd8a8" stroke-width="1" fill="none"></path><path d="M25.55 0 C79.66 1.77, 133.36 -0.04, 164.05 0 M25.55 0 C59.75 0.6, 95.1 0.71, 164.05 0 M164.05 0 C179.53 -0.29, 189.26 6.55, 189.6 25.55 M164.05 0 C179.87 1.69, 191.12 10.63, 189.6 25.55 M189.6 25.55 C187.81 37.62, 187.35 51.3, 189.6 76.65 M189.6 25.55 C189.62 44.57, 189.2 63.34, 189.6 76.65 M189.6 76.65 C188.68 95, 180.42 103.66, 164.05 102.2 M189.6 76.65 C188.08 94.2, 181.51 100.04, 164.05 102.2 M164.05 102.2 C128.89 102.11, 92.4 101.89, 25.55 102.2 M164.05 102.2 C135.85 103.57, 106.79 103.62, 25.55 102.2 M25.55 102.2 C8.27 103.71, -0.28 95.11, 0 76.65 M25.55 102.2 C7.5 102.96, 0.89 92.31, 0 76.65 M0 76.65 C0.92 60.19, -0.15 42.33, 0 25.55 M0 76.65 C-0.58 60.35, -0.06 44.07, 0 25.55 M0 25.55 C-0.22 10.46, 7.52 -1.26, 25.55 0 M0 25.55 C2.03 9.29, 10.56 0.84, 25.55 0" stroke="#1e1e1e" stroke-width="2" fill="none"></path></g><g transform="translate(300.15532430013025 146.39999389648438) rotate(0 53.577972412109375 17.5)"><text x="53.577972412109375" y="0" font-family="Virgil, Segoe UI Emoji" font-size="28px" fill="#1e1e1e" text-anchor="middle" style="white-space: pre;" direction="ltr" dominant-baseline="text-before-edge">Analysis</text></g><g stroke-linecap="round" transform="translate(507.86661783854174 112.79999542236328) rotate(0 94.79998779296875 51.099998474121094)"><path d="M6.14 6.67 C6.14 6.67, 6.14 6.67, 6.14 6.67 M6.14 6.67 C6.14 6.67, 6.14 6.67, 6.14 6.67 M3 22.48 C6.33 16.71, 10.42 13.11, 18.09 5.12 M3 22.48 C7.83 16.52, 13.37 10.57, 18.09 5.12 M3.13 34.52 C8.8 26.9, 19.92 18.97, 30.03 3.58 M3.13 34.52 C10.12 26.39, 16.66 18.85, 30.03 3.58 M3.26 46.56 C11.31 36.27, 19.19 29.31, 40.66 3.54 M3.26 46.56 C14.49 33.86, 27.37 19.13, 40.66 3.54 M3.4 58.6 C12.62 45.53, 24.93 33.49, 51.29 3.51 M3.4 58.6 C21.11 37.51, 40.2 16.7, 51.29 3.51 M3.53 70.64 C15.64 55.75, 30.93 38.32, 61.92 3.48 M3.53 70.64 C25.79 44.73, 47.68 19.39, 61.92 3.48 M2.35 84.19 C23.97 62.13, 41.2 35.65, 72.55 3.44 M2.35 84.19 C23.42 59.95, 43.53 37.27, 72.55 3.44 M5.11 93.22 C28.22 64.25, 53.96 36.81, 83.18 3.41 M5.11 93.22 C28.98 64.64, 54.35 36.17, 83.18 3.41 M10.49 99.22 C29.7 77.93, 48.97 55.39, 93.15 4.13 M10.49 99.22 C32.34 75.8, 53.27 50.75, 93.15 4.13 M19.15 101.45 C39.33 77.86, 59.67 53.69, 103.78 4.09 M19.15 101.45 C46.49 71.15, 72.13 42.12, 103.78 4.09 M27.81 103.68 C51.93 77.8, 73.86 50.59, 114.41 4.06 M27.81 103.68 C51.94 78.57, 74.81 51.34, 114.41 4.06 M38.44 103.64 C56.37 83.66, 76.47 59.7, 125.04 4.02 M38.44 103.64 C57.86 79.82, 80.4 56.21, 125.04 4.02 M49.07 103.61 C71.79 77.71, 97.96 48.91, 135.67 3.99 M49.07 103.61 C78.17 68.59, 108.38 32.53, 135.67 3.99 M59.05 104.33 C85.43 69.74, 114.33 37.22, 146.3 3.95 M59.05 104.33 C94.93 63.19, 128.16 24.24, 146.3 3.95 M69.68 104.3 C91.51 79.64, 114.84 52.29, 156.93 3.92 M69.68 104.3 C99.15 70.8, 128.09 38, 156.93 3.92 M80.31 104.26 C115.44 65.65, 150.09 25.25, 168.22 3.13 M80.31 104.26 C113.47 65.3, 146.78 28.25, 168.22 3.13 M90.94 104.23 C107.38 85.39, 125.15 65.35, 176.88 5.36 M90.94 104.23 C114.42 77.74, 136.98 52.54, 176.88 5.36 M101.57 104.19 C128.7 75.08, 154.74 43.55, 184.89 8.34 M101.57 104.19 C132.81 68.85, 162.88 33.76, 184.89 8.34 M112.2 104.16 C132.51 81.74, 153.23 57.44, 190.27 14.35 M112.2 104.16 C139.48 71.76, 167.85 39.09, 190.27 14.35 M122.83 104.12 C150.78 71.43, 175.74 39.59, 193.03 23.37 M122.83 104.12 C144.66 81.78, 165.32 57.15, 193.03 23.37 M133.46 104.09 C151.66 80.85, 174.34 58.63, 193.16 35.41 M133.46 104.09 C151.2 84.26, 167.78 65.41, 193.16 35.41 M144.09 104.05 C159.69 86.17, 176.63 65.43, 193.29 47.45 M144.09 104.05 C155.87 90.57, 168.44 76.22, 193.29 47.45 M154.72 104.02 C166.33 89.54, 182.54 71.46, 193.43 59.49 M154.72 104.02 C164.72 92.05, 176.11 79.37, 193.43 59.49 M165.35 103.99 C172.17 95.85, 181.04 84.03, 193.56 71.53 M165.35 103.99 C171.88 95.3, 179.49 89.39, 193.56 71.53" stroke="#ffd8a8" stroke-width="1" fill="none"></path><path d="M25.55 0 C60.85 0.56, 95.53 -3.15, 164.05 0 M25.55 0 C55.7 -0.03, 86.13 0.34, 164.05 0 M164.05 0 C179.21 -1.31, 187.76 9.28, 189.6 25.55 M164.05 0 C183.16 1.24, 189.67 6.32, 189.6 25.55 M189.6 25.55 C188.39 38.77, 188.29 55.64, 189.6 76.65 M189.6 25.55 C190.55 39.93, 189.37 55.25, 189.6 76.65 M189.6 76.65 C191.01 94.42, 179.4 104.01, 164.05 102.2 M189.6 76.65 C190.66 92.9, 180.99 103.67, 164.05 102.2 M164.05 102.2 C125.66 102.41, 84.28 102.16, 25.55 102.2 M164.05 102.2 C125.88 103.03, 89.03 102.58, 25.55 102.2 M25.55 102.2 C9.95 103.23, 0.84 93.64, 0 76.65 M25.55 102.2 C9.86 101.56, 0.14 92.3, 0 76.65 M0 76.65 C-2.1 58.48, 0.16 39.82, 0 25.55 M0 76.65 C0.36 62.18, 0.04 49.36, 0 25.55 M0 25.55 C1.61 8.96, 10.43 0.31, 25.55 0 M0 25.55 C2.26 7.78, 8.27 -0.13, 25.55 0" stroke="#1e1e1e" stroke-width="2" fill="none"></path></g><g transform="translate(549.0326334635417 146.39999389648438) rotate(0 53.63397216796875 17.5)"><text x="53.63397216796875" y="0" font-family="Virgil, Segoe UI Emoji" font-size="28px" fill="#1e1e1e" text-anchor="middle" style="white-space: pre;" direction="ltr" dominant-baseline="text-before-edge">Decision</text></g><g stroke-linecap="round" transform="translate(756.7999267578126 112.79999542236328) rotate(0 94.79998779296875 51.099998474121094)"><path d="M6.14 6.67 C6.14 6.67, 6.14 6.67, 6.14 6.67 M6.14 6.67 C6.14 6.67, 6.14 6.67, 6.14 6.67 M1.03 24.75 C4.95 17.82, 12.74 10.18, 22.02 0.59 M1.03 24.75 C8.39 15.2, 15.98 7.19, 22.02 0.59 M1.16 36.79 C8.79 29.29, 15.46 20.99, 32.65 0.56 M1.16 36.79 C13.59 24.04, 24.16 10.62, 32.65 0.56 M1.3 48.83 C13.2 31.72, 27.97 18.9, 43.28 0.53 M1.3 48.83 C14.54 35.03, 26.7 19.19, 43.28 0.53 M0.77 61.62 C17.06 44.8, 31.08 28.98, 53.91 0.49 M0.77 61.62 C14.11 46.3, 26.64 32.82, 53.91 0.49 M0.91 73.66 C26.32 46.4, 48.68 14.37, 64.54 0.46 M0.91 73.66 C18.03 53.79, 35.01 33.98, 64.54 0.46 M1.7 84.95 C20.83 62.93, 37.39 40.66, 75.17 0.42 M1.7 84.95 C26.8 56.15, 52.26 26.77, 75.17 0.42 M5.11 93.22 C30.13 66.45, 53.72 35.62, 85.8 0.39 M5.11 93.22 C32.47 62.19, 60.52 28.85, 85.8 0.39 M10.49 99.22 C34.92 70.45, 59.72 40.09, 96.43 0.35 M10.49 99.22 C41.13 63.46, 72.9 28.23, 96.43 0.35 M19.15 101.45 C37.9 80.72, 53.23 58.3, 107.06 0.32 M19.15 101.45 C50.54 67.8, 78.21 35, 107.06 0.32 M28.47 102.92 C51.65 73.39, 76.48 45.4, 117.69 0.28 M28.47 102.92 C59.59 69.45, 90.84 34.15, 117.69 0.28 M39.1 102.89 C74.66 66.69, 104.83 27.88, 128.32 0.25 M39.1 102.89 C61.49 76.92, 85.35 50.07, 128.32 0.25 M49.73 102.86 C82.29 64.34, 114.92 27.87, 138.95 0.22 M49.73 102.86 C70.09 81.59, 88.54 57.77, 138.95 0.22 M60.36 102.82 C86.12 70.7, 113.57 42.87, 149.58 0.18 M60.36 102.82 C83.45 73.57, 109.49 46.07, 149.58 0.18 M70.99 102.79 C92.98 80.39, 112.36 58.12, 160.21 0.15 M70.99 102.79 C95.99 74.31, 120.76 45.65, 160.21 0.15 M81.62 102.75 C112.83 70.07, 141.04 35.12, 169.53 1.62 M81.62 102.75 C110.57 69.6, 141.01 34.65, 169.53 1.62 M92.25 102.72 C109.24 81.29, 129.35 61.05, 178.85 3.1 M92.25 102.72 C117.23 72.86, 142.11 43.24, 178.85 3.1 M102.88 102.68 C130.46 73.1, 157.11 42.47, 184.89 8.34 M102.88 102.68 C130.58 69.11, 160.1 36.81, 184.89 8.34 M113.51 102.65 C131.81 83.12, 151.61 58.04, 188.3 16.61 M113.51 102.65 C142.62 70.01, 173.04 36, 188.3 16.61 M124.14 102.61 C142.16 80.91, 164.53 58.17, 189.75 27.14 M124.14 102.61 C137.89 87.65, 152.41 71.51, 189.75 27.14 M134.77 102.58 C148.84 86.49, 165.7 68.67, 189.88 39.18 M134.77 102.58 C155.2 78.03, 176.22 54.56, 189.88 39.18 M145.4 102.55 C154.13 91.99, 162.34 81.09, 190.01 51.22 M145.4 102.55 C160.96 84.55, 175.5 65.99, 190.01 51.22 M156.03 102.51 C164.16 92.97, 171.32 87.6, 189.49 64.02 M156.03 102.51 C163.7 93.29, 171.58 84.61, 189.49 64.02 M167.32 101.72 C173.09 94.76, 175.51 88.45, 189.62 76.06 M167.32 101.72 C172.09 97.32, 175.67 91.8, 189.62 76.06" stroke="#ffd8a8" stroke-width="1" fill="none"></path><path d="M25.55 0 C54.62 0.71, 88.53 -0.58, 164.05 0 M25.55 0 C73.77 -0.22, 121.03 0.03, 164.05 0 M164.05 0 C179.24 0.24, 188.11 6.74, 189.6 25.55 M164.05 0 C181.59 -1.58, 188.37 10.02, 189.6 25.55 M189.6 25.55 C189.56 39.01, 188.49 51.81, 189.6 76.65 M189.6 25.55 C190.02 39.96, 190.14 52.32, 189.6 76.65 M189.6 76.65 C187.99 92.28, 179.35 100.4, 164.05 102.2 M189.6 76.65 C190.93 92.84, 180.03 100.87, 164.05 102.2 M164.05 102.2 C113.12 102.52, 62.39 100.65, 25.55 102.2 M164.05 102.2 C121.06 101.55, 76.7 101.78, 25.55 102.2 M25.55 102.2 C9.92 104.08, -1.35 95.39, 0 76.65 M25.55 102.2 C6.35 101.84, 0.63 95.26, 0 76.65 M0 76.65 C-0.76 57.49, 2.36 39.99, 0 25.55 M0 76.65 C-1.13 59.08, -0.93 40.85, 0 25.55 M0 25.55 C0.82 8.35, 9.97 0.78, 25.55 0 M0 25.55 C-0.18 9.27, 7.52 -1.34, 25.55 0" stroke="#1e1e1e" stroke-width="2" fill="none"></path></g><g transform="translate(810.1179351806642 146.39999389648438) rotate(0 41.48197937011719 17.5)"><text x="41.48197937011719" y="0" font-family="Virgil, Segoe UI Emoji" font-size="28px" fill="#1e1e1e" text-anchor="middle" style="white-space: pre;" direction="ltr" dominant-baseline="text-before-edge">Action</text></g><g stroke-linecap="round"><g transform="translate(123.60000610351562 103.9000015258789) rotate(0 112.80000305175781 -24.5)"><path d="M0 0 C18.4 -8.17, 72.8 -47.9, 110.4 -49 C148 -50.1, 206.4 -13.67, 225.6 -6.6 M0 0 C18.4 -8.17, 72.8 -47.9, 110.4 -49 C148 -50.1, 206.4 -13.67, 225.6 -6.6" stroke="#1e1e1e" stroke-width="2" fill="none"></path></g><g transform="translate(123.60000610351562 103.9000015258789) rotate(0 112.80000305175781 -24.5)"><path d="M195.74 -9.44 C207 -8.37, 218.26 -7.3, 225.6 -6.6 M195.74 -9.44 C205.3 -8.53, 214.87 -7.62, 225.6 -6.6" stroke="#1e1e1e" stroke-width="2" fill="none"></path></g><g transform="translate(123.60000610351562 103.9000015258789) rotate(0 112.80000305175781 -24.5)"><path d="M204.55 -27.97 C212.49 -19.91, 220.43 -11.85, 225.6 -6.6 M204.55 -27.97 C211.29 -21.13, 218.04 -14.28, 225.6 -6.6" stroke="#1e1e1e" stroke-width="2" fill="none"></path></g></g><mask></mask><g stroke-linecap="round"><g transform="translate(351.5999755859375 227.0999984741211) rotate(0 123.20001220703125 25.399993896484375)"><path d="M0 0 C22.27 8.5, 92.53 51.03, 133.6 51 C174.67 50.97, 227.6 8.33, 246.4 -0.2 M0 0 C22.27 8.5, 92.53 51.03, 133.6 51 C174.67 50.97, 227.6 8.33, 246.4 -0.2" stroke="#1e1e1e" stroke-width="2" fill="none"></path></g><g transform="translate(351.5999755859375 227.0999984741211) rotate(0 123.20001220703125 25.399993896484375)"><path d="M227.42 23.03 C231.64 17.87, 235.86 12.7, 246.4 -0.2 M227.42 23.03 C233.21 15.95, 238.99 8.87, 246.4 -0.2" stroke="#1e1e1e" stroke-width="2" fill="none"></path></g><g transform="translate(351.5999755859375 227.0999984741211) rotate(0 123.20001220703125 25.399993896484375)"><path d="M216.93 5.4 C223.48 4.16, 230.03 2.91, 246.4 -0.2 M216.93 5.4 C225.91 3.69, 234.89 1.99, 246.4 -0.2" stroke="#1e1e1e" stroke-width="2" fill="none"></path></g></g><mask></mask><g stroke-linecap="round"><g transform="translate(612.3999481201172 98.2121859664512) rotate(0 112.80000305175781 -24.5)"><path d="M0 0 C18.4 -8.17, 72.8 -47.9, 110.4 -49 C148 -50.1, 206.4 -13.67, 225.6 -6.6 M0 0 C18.4 -8.17, 72.8 -47.9, 110.4 -49 C148 -50.1, 206.4 -13.67, 225.6 -6.6" stroke="#1e1e1e" stroke-width="2" fill="none"></path></g><g transform="translate(612.3999481201172 98.2121859664512) rotate(0 112.80000305175781 -24.5)"><path d="M195.74 -9.44 C203.8 -8.68, 211.86 -7.91, 225.6 -6.6 M195.74 -9.44 C203.28 -8.73, 210.82 -8.01, 225.6 -6.6" stroke="#1e1e1e" stroke-width="2" fill="none"></path></g><g transform="translate(612.3999481201172 98.2121859664512) rotate(0 112.80000305175781 -24.5)"><path d="M204.55 -27.97 C210.23 -22.2, 215.92 -16.43, 225.6 -6.6 M204.55 -27.97 C209.86 -22.58, 215.18 -17.18, 225.6 -6.6" stroke="#1e1e1e" stroke-width="2" fill="none"></path></g></g><mask></mask><g transform="translate(189.20001220703125 18.09998321533203) rotate(0 55.509979248046875 17.5)"><text x="0" y="0" font-family="Virgil, Segoe UI Emoji" font-size="28px" fill="#f08c00" text-anchor="start" style="white-space: pre;" direction="ltr" dominant-baseline="text-before-edge">Extract</text></g><g transform="translate(432.8900451660156 286.99999237060547) rotate(0 34.985984802246094 17.5)"><text x="0" y="0" font-family="Virgil, Segoe UI Emoji" font-size="28px" fill="#f08c00" text-anchor="start" style="white-space: pre;" direction="ltr" dominant-baseline="text-before-edge">Drive</text></g><g transform="translate(687.8899841308594 10) rotate(0 34.985984802246094 17.5)"><text x="0" y="0" font-family="Virgil, Segoe UI Emoji" font-size="28px" fill="#f08c00" text-anchor="start" style="white-space: pre;" direction="ltr" dominant-baseline="text-before-edge">Drive</text></g></svg>