<svg version="1.1" xmlns="http://www.w3.org/2000/svg" viewBox="0 0 3244.570337931316 1576.0226821172755" width="3244.570337931316" height="1576.0226821172755">
  <!-- svg-source:excalidraw -->
  
  <defs>
    <style class="style-fonts">
      @font-face {
        font-family: "Virgil";
        src: url("https://file%2B.vscode-resource.vscode-cdn.net/d%3A/Tools/vsc/data/extensions/pomdtr.excalidraw-editor-3.7.1/public//dist/excalidraw-assets/Virgil.woff2");
      }
      @font-face {
        font-family: "Cascadia";
        src: url("https://file%2B.vscode-resource.vscode-cdn.net/d%3A/Tools/vsc/data/extensions/pomdtr.excalidraw-editor-3.7.1/public//dist/excalidraw-assets/Cascadia.woff2");
      }
      @font-face {
        font-family: "Assistant";
        src: url("https://file%2B.vscode-resource.vscode-cdn.net/d%3A/Tools/vsc/data/extensions/pomdtr.excalidraw-editor-3.7.1/public//dist/excalidraw-assets/Assistant-Regular.woff2");
      }
    </style>
    
  </defs>
  <rect x="0" y="0" width="3244.570337931316" height="1576.0226821172755" fill="#f8f9fa"></rect><g stroke-linecap="round" transform="translate(740.720713297526 198.9226073492092) rotate(0 102 55.099998474121094)"><path d="M27.55 0 C67.55 -2.94, 113.11 3.15, 176.45 0 M27.55 0 C71.37 -1.49, 114.28 -1.42, 176.45 0 M176.45 0 C198.68 1.76, 205.25 8.63, 204 27.55 M176.45 0 C192.02 4.16, 200.77 5.66, 204 27.55 M204 27.55 C205.72 42.91, 205.04 60.91, 204 82.65 M204 27.55 C202.42 46.3, 203.98 67.35, 204 82.65 M204 82.65 C206.09 102.47, 196.44 110.38, 176.45 110.2 M204 82.65 C200.74 97.84, 193.47 110.06, 176.45 110.2 M176.45 110.2 C142.78 109.68, 99.8 111.66, 27.55 110.2 M176.45 110.2 C117.07 105.63, 58.75 108.42, 27.55 110.2 M27.55 110.2 C6.99 113.5, 0.82 102.12, 0 82.65 M27.55 110.2 C5.36 106.52, 1.55 101.08, 0 82.65 M0 82.65 C-0.35 62.48, 2.78 51.45, 0 27.55 M0 82.65 C1.3 65.96, -1.43 49.73, 0 27.55 M0 27.55 C-3.55 7.41, 5.56 0.9, 27.55 0 M0 27.55 C-1.04 10.7, 7.53 1.7, 27.55 0" stroke="#1e1e1e" stroke-width="1" fill="none"></path></g><g transform="translate(753.4407602945963 234.02260582333028) rotate(0 89.27995300292969 20)"><text x="89.27995300292969" y="0" font-family="Virgil, Segoe UI Emoji" font-size="16px" fill="#1e1e1e" text-anchor="middle" style="white-space: pre;" direction="ltr" dominant-baseline="text-before-edge">Sung Jin-woo commands</text><text x="89.27995300292969" y="20" font-family="Virgil, Segoe UI Emoji" font-size="16px" fill="#1e1e1e" text-anchor="middle" style="white-space: pre;" direction="ltr" dominant-baseline="text-before-edge">ARISE to the issue</text></g><g stroke-linecap="round" transform="translate(725.1207071940104 368.9226378667873) rotate(0 117.60000610351562 67.10000610351562)"><path d="M147.5 17 C168.65 28.2, 191.5 42.22, 205.7 51 M147.5 17 C166.57 28.4, 185.52 38.49, 205.7 51 M205.7 51 C236.82 71.24, 231.71 71.37, 205.7 85 M205.7 51 C234.7 64.22, 231.23 66.21, 205.7 85 M205.7 85 C190.17 93.57, 182.35 101.1, 147.5 117.2 M205.7 85 C190.89 90.81, 174.75 98.98, 147.5 117.2 M147.5 117.2 C120.66 134.23, 119.97 137.02, 88.5 117.2 M147.5 117.2 C120.1 137.28, 118.13 133.04, 88.5 117.2 M88.5 117.2 C69.73 106.2, 55.22 97.5, 29.5 85 M88.5 117.2 C67.9 107, 46.89 94.22, 29.5 85 M29.5 85 C3.67 67.53, -0.31 66.53, 29.5 51 M29.5 85 C-1.73 65.72, -2.04 71.99, 29.5 51 M29.5 51 C50.15 40.16, 70.16 29.99, 88.5 17 M29.5 51 C41.69 42.11, 55.05 36.55, 88.5 17 M88.5 17 C117.25 -3.67, 121.71 3.45, 147.5 17 M88.5 17 C118.51 3.08, 122.57 -0.66, 147.5 17" stroke="#1e1e1e" stroke-width="1" fill="none"></path></g><g transform="translate(791.1047388712565 415.9726409185451) rotate(0 51.81597137451172 20)"><text x="51.81597137451172" y="0" font-family="Virgil, Segoe UI Emoji" font-size="16px" fill="#1e1e1e" text-anchor="middle" style="white-space: pre;" direction="ltr" dominant-baseline="text-before-edge">ask the king </text><text x="51.81597137451172" y="20" font-family="Virgil, Segoe UI Emoji" font-size="16px" fill="#1e1e1e" text-anchor="middle" style="white-space: pre;" direction="ltr" dominant-baseline="text-before-edge">of wisdom</text></g><g transform="translate(585.6327845255533 350.72261040096697) rotate(0 96.41593933105469 30)"><text x="96.41593933105469" y="0" font-family="Virgil, Segoe UI Emoji" font-size="16px" fill="#1971c2" text-anchor="middle" style="white-space: pre;" direction="ltr" dominant-baseline="text-before-edge">Google • Bing •</text><text x="96.41593933105469" y="20" font-family="Virgil, Segoe UI Emoji" font-size="16px" fill="#1971c2" text-anchor="middle" style="white-space: pre;" direction="ltr" dominant-baseline="text-before-edge">Chat GPT • Bing Chat •</text><text x="96.41593933105469" y="40" font-family="Virgil, Segoe UI Emoji" font-size="16px" fill="#1971c2" text-anchor="middle" style="white-space: pre;" direction="ltr" dominant-baseline="text-before-edge">Stackoverflow</text></g><g stroke-linecap="round"><g transform="translate(835.4479413009215 315.32258598690447) rotate(0 4.312085919823176 29.67623074804294)"><path d="M0 0 C1.44 9.89, 7.19 49.46, 8.62 59.35 M0 0 C1.44 9.89, 7.19 49.46, 8.62 59.35" stroke="#1e1e1e" stroke-width="1" fill="none"></path></g><g transform="translate(835.4479413009215 315.32258598690447) rotate(0 4.312085919823176 29.67623074804294)"><path d="M-5.58 32.94 C-0.83 41.77, 3.92 50.59, 8.62 59.35 M-5.58 32.94 C-1.25 41, 3.09 49.05, 8.62 59.35" stroke="#1e1e1e" stroke-width="1" fill="none"></path></g><g transform="translate(835.4479413009215 315.32258598690447) rotate(0 4.312085919823176 29.67623074804294)"><path d="M14.72 29.99 C12.68 39.8, 10.65 49.62, 8.62 59.35 M14.72 29.99 C12.86 38.95, 11 47.9, 8.62 59.35" stroke="#1e1e1e" stroke-width="1" fill="none"></path></g></g><mask></mask><g stroke-linecap="round" transform="translate(725.1207071940104 566.8226012456936) rotate(0 117.60000610351562 70)"><path d="M147.5 17.75 C164.88 30.46, 176.03 34.49, 205.7 53.25 M147.5 17.75 C168.11 32.4, 189.33 43.04, 205.7 53.25 M205.7 53.25 C237.31 69.17, 234.1 70.08, 205.7 88.75 M205.7 53.25 C234.56 66.51, 235.22 69.22, 205.7 88.75 M205.7 88.75 C194.83 99.78, 184.81 105.68, 147.5 122.25 M205.7 88.75 C190 96.68, 175.3 104.59, 147.5 122.25 M147.5 122.25 C119.22 143.75, 116.98 143.03, 88.5 122.25 M147.5 122.25 C119.75 137.46, 122.47 136.38, 88.5 122.25 M88.5 122.25 C65.05 107.9, 51.39 103.37, 29.5 88.75 M88.5 122.25 C75.23 115.98, 63.88 109.57, 29.5 88.75 M29.5 88.75 C0.06 70.29, 2.77 69.83, 29.5 53.25 M29.5 88.75 C-2.22 68.62, 4.42 69.67, 29.5 53.25 M29.5 53.25 C47.58 37.65, 74.01 29.51, 88.5 17.75 M29.5 53.25 C44.21 44.29, 60.99 36.05, 88.5 17.75 M88.5 17.75 C116.27 -2.98, 121.02 -2.56, 147.5 17.75 M88.5 17.75 C113.72 -1.37, 116.74 3.11, 147.5 17.75" stroke="#1e1e1e" stroke-width="1" fill="none"></path></g><g transform="translate(791.4567438761393 606.8226012456936) rotate(0 51.463966369628906 30)"><text x="51.463966369628906" y="0" font-family="Virgil, Segoe UI Emoji" font-size="16px" fill="#1e1e1e" text-anchor="middle" style="white-space: pre;" direction="ltr" dominant-baseline="text-before-edge">decompile the</text><text x="51.463966369628906" y="20" font-family="Virgil, Segoe UI Emoji" font-size="16px" fill="#1e1e1e" text-anchor="middle" style="white-space: pre;" direction="ltr" dominant-baseline="text-before-edge">code like it's</text><text x="51.463966369628906" y="40" font-family="Virgil, Segoe UI Emoji" font-size="16px" fill="#1e1e1e" text-anchor="middle" style="white-space: pre;" direction="ltr" dominant-baseline="text-before-edge">nothing</text></g><g stroke-linecap="round"><g transform="translate(843.6117685821511 507.0173683237802) rotate(0 -1.2898552535365866 28.917100801241446)"><path d="M0 0 C-0.43 9.64, -2.15 48.2, -2.58 57.83 M0 0 C-0.43 9.64, -2.15 48.2, -2.58 57.83" stroke="#1e1e1e" stroke-width="1" fill="none"></path></g><g transform="translate(843.6117685821511 507.0173683237802) rotate(0 -1.2898552535365866 28.917100801241446)"><path d="M-11.26 30.22 C-9.32 36.38, -7.38 42.55, -2.58 57.83 M-11.26 30.22 C-9.52 35.74, -7.79 41.27, -2.58 57.83" stroke="#1e1e1e" stroke-width="1" fill="none"></path></g><g transform="translate(843.6117685821511 507.0173683237802) rotate(0 -1.2898552535365866 28.917100801241446)"><path d="M8.52 31.1 C6.04 37.07, 3.57 43.04, -2.58 57.83 M8.52 31.1 C6.3 36.45, 4.08 41.8, -2.58 57.83" stroke="#1e1e1e" stroke-width="1" fill="none"></path></g></g><mask></mask><g transform="translate(871.0487467447916 523.9226531255764) rotate(0 22.071990966796875 10)"><text x="22.071990966796875" y="0" font-family="Virgil, Segoe UI Emoji" font-size="16px" fill="#e03131" text-anchor="middle" style="white-space: pre;" direction="ltr" dominant-baseline="text-before-edge">canod</text></g><g stroke-linecap="round" transform="translate(684.7207285563151 765.122741626553) rotate(0 157.99998474121094 80.20001220703125)"><path d="M197.5 20.25 C216.77 31.62, 239.42 42.46, 276.5 60.75 M197.5 20.25 C224.75 36.3, 247.48 45.57, 276.5 60.75 M276.5 60.75 C317.68 79.88, 313.36 78.28, 276.5 101.25 M276.5 60.75 C317.21 83.33, 315.38 81.06, 276.5 101.25 M276.5 101.25 C258.95 108.8, 244.11 120.13, 197.5 140.15 M276.5 101.25 C256.59 111.77, 237.37 118.38, 197.5 140.15 M197.5 140.15 C157.43 160.35, 156.08 157.44, 118.5 140.15 M197.5 140.15 C154.47 158.2, 158.8 158.48, 118.5 140.15 M118.5 140.15 C93.52 127.57, 74.7 116.21, 39.5 101.25 M118.5 140.15 C93.91 129.93, 72.93 119.12, 39.5 101.25 M39.5 101.25 C-3.57 77.73, 3.44 81.14, 39.5 60.75 M39.5 101.25 C1.53 83.36, -3.51 80.91, 39.5 60.75 M39.5 60.75 C66.78 43.26, 99.08 31.69, 118.5 20.25 M39.5 60.75 C61.93 48.18, 86.28 34.97, 118.5 20.25 M118.5 20.25 C155.8 -1.66, 154.88 1.2, 197.5 20.25 M118.5 20.25 C155.02 3.06, 153.92 0.31, 197.5 20.25" stroke="#1e1e1e" stroke-width="1" fill="none"></path></g><g transform="translate(769.9847666422526 815.2227477300686) rotate(0 72.73595428466797 30)"><text x="72.73595428466797" y="0" font-family="Virgil, Segoe UI Emoji" font-size="16px" fill="#1e1e1e" text-anchor="middle" style="white-space: pre;" direction="ltr" dominant-baseline="text-before-edge">ask the source to</text><text x="72.73595428466797" y="20" font-family="Virgil, Segoe UI Emoji" font-size="16px" fill="#1e1e1e" text-anchor="middle" style="white-space: pre;" direction="ltr" dominant-baseline="text-before-edge">the queen of </text><text x="72.73595428466797" y="40" font-family="Virgil, Segoe UI Emoji" font-size="16px" fill="#1e1e1e" text-anchor="middle" style="white-space: pre;" direction="ltr" dominant-baseline="text-before-edge">external knowledge</text></g><g transform="translate(628.9367930094401 761.472595142178) rotate(0 66.38395690917969 20)"><text x="66.38395690917969" y="0" font-family="Virgil, Segoe UI Emoji" font-size="16px" fill="#1971c2" text-anchor="middle" style="white-space: pre;" direction="ltr" dominant-baseline="text-before-edge">Github • Gitlab •</text><text x="66.38395690917969" y="20" font-family="Virgil, Segoe UI Emoji" font-size="16px" fill="#1971c2" text-anchor="middle" style="white-space: pre;" direction="ltr" dominant-baseline="text-before-edge">Sourceforge</text></g><g stroke-linecap="round"><g transform="translate(842.4792565351042 711.5896428646394) rotate(0 -1.6265178998376086 26.819267174484594)"><path d="M0 0 C-0.54 8.94, -2.71 44.7, -3.25 53.64 M0 0 C-0.54 8.94, -2.71 44.7, -3.25 53.64" stroke="#1e1e1e" stroke-width="1" fill="none"></path></g><g transform="translate(842.4792565351042 711.5896428646394) rotate(0 -1.6265178998376086 26.819267174484594)"><path d="M-10.9 27.88 C-9.06 34.07, -7.23 40.25, -3.25 53.64 M-10.9 27.88 C-8.56 35.75, -6.23 43.62, -3.25 53.64" stroke="#1e1e1e" stroke-width="1" fill="none"></path></g><g transform="translate(842.4792565351042 711.5896428646394) rotate(0 -1.6265178998376086 26.819267174484594)"><path d="M7.45 28.99 C4.88 34.91, 2.31 40.83, -3.25 53.64 M7.45 28.99 C4.18 36.52, 0.91 44.05, -3.25 53.64" stroke="#1e1e1e" stroke-width="1" fill="none"></path></g></g><mask></mask><g stroke-linecap="round" transform="translate(725.1207071940104 982.8727111089748) rotate(0 117.60000610351562 70)"><path d="M147.5 17.75 C160.85 25.44, 172.1 29.82, 205.7 53.25 M147.5 17.75 C163.87 28.32, 177.64 37.54, 205.7 53.25 M205.7 53.25 C234.69 74.74, 235.88 70.74, 205.7 88.75 M205.7 53.25 C233.31 75, 234.3 68.67, 205.7 88.75 M205.7 88.75 C190.98 92.82, 178.18 104, 147.5 122.25 M205.7 88.75 C193.73 96.25, 178.76 103.43, 147.5 122.25 M147.5 122.25 C118.38 137.2, 118.67 137.81, 88.5 122.25 M147.5 122.25 C115.07 138.42, 114.61 143.88, 88.5 122.25 M88.5 122.25 C72.82 118.65, 61.74 104.69, 29.5 88.75 M88.5 122.25 C69.22 109.07, 47.22 97.85, 29.5 88.75 M29.5 88.75 C-3.68 73.83, 0.53 74.8, 29.5 53.25 M29.5 88.75 C1.87 69.29, 1.92 72.46, 29.5 53.25 M29.5 53.25 C48.69 38.24, 68.51 29, 88.5 17.75 M29.5 53.25 C44.28 46.31, 56.12 36.14, 88.5 17.75 M88.5 17.75 C115.43 1.96, 115.34 1.9, 147.5 17.75 M88.5 17.75 C113.71 3.24, 118.17 -0.63, 147.5 17.75" stroke="#1e1e1e" stroke-width="1" fill="none"></path></g><g transform="translate(791.3927408854166 1022.8727111089748) rotate(0 51.52796936035156 30)"><text x="51.52796936035156" y="0" font-family="Virgil, Segoe UI Emoji" font-size="16px" fill="#1e1e1e" text-anchor="middle" style="white-space: pre;" direction="ltr" dominant-baseline="text-before-edge">ask senior or</text><text x="51.52796936035156" y="20" font-family="Virgil, Segoe UI Emoji" font-size="16px" fill="#1e1e1e" text-anchor="middle" style="white-space: pre;" direction="ltr" dominant-baseline="text-before-edge">other devs, </text><text x="51.52796936035156" y="40" font-family="Virgil, Segoe UI Emoji" font-size="16px" fill="#1e1e1e" text-anchor="middle" style="white-space: pre;" direction="ltr" dominant-baseline="text-before-edge">ask leader</text></g><g stroke-linecap="round"><g transform="translate(841.9207102457682 927.972595142178) rotate(0 0.8000030517578125 27.099998474121094)"><path d="M0 0 C0.27 9.03, 1.33 45.17, 1.6 54.2 M0 0 C0.27 9.03, 1.33 45.17, 1.6 54.2" stroke="#1e1e1e" stroke-width="1" fill="none"></path></g><g transform="translate(841.9207102457682 927.972595142178) rotate(0 0.8000030517578125 27.099998474121094)"><path d="M-8.42 29.01 C-4.84 38.02, -1.25 47.02, 1.6 54.2 M-8.42 29.01 C-5.19 37.13, -1.96 45.25, 1.6 54.2" stroke="#1e1e1e" stroke-width="1" fill="none"></path></g><g transform="translate(841.9207102457682 927.972595142178) rotate(0 0.8000030517578125 27.099998474121094)"><path d="M10.12 28.46 C7.07 37.66, 4.03 46.87, 1.6 54.2 M10.12 28.46 C7.37 36.76, 4.63 45.06, 1.6 54.2" stroke="#1e1e1e" stroke-width="1" fill="none"></path></g></g><mask></mask><g stroke-linecap="round" transform="translate(725.1207071940104 1190.1226042974513) rotate(0 117.60000610351562 70)"><path d="M147.5 17.75 C167.2 27.76, 182.72 41.95, 205.7 53.25 M147.5 17.75 C169.79 30.67, 192.07 44.15, 205.7 53.25 M205.7 53.25 C238.12 72.18, 239.02 72.2, 205.7 88.75 M205.7 53.25 C238.65 73.44, 234.7 70.29, 205.7 88.75 M205.7 88.75 C190.66 95.19, 179.18 108.03, 147.5 122.25 M205.7 88.75 C184.86 102.37, 164.09 114.39, 147.5 122.25 M147.5 122.25 C116.79 142.2, 115.24 139.78, 88.5 122.25 M147.5 122.25 C122.55 144.25, 121.2 138.82, 88.5 122.25 M88.5 122.25 C74.53 109.89, 57.65 104.39, 29.5 88.75 M88.5 122.25 C71.31 114.16, 53.72 104.42, 29.5 88.75 M29.5 88.75 C2.48 74.67, 2.8 68.37, 29.5 53.25 M29.5 88.75 C-2.16 72.79, -3.29 71.79, 29.5 53.25 M29.5 53.25 C52.58 39.43, 74.57 25.04, 88.5 17.75 M29.5 53.25 C44.91 41.33, 61.44 35.05, 88.5 17.75 M88.5 17.75 C121.11 3.36, 114.69 -3.49, 147.5 17.75 M88.5 17.75 C120.45 4.13, 119.27 -1.86, 147.5 17.75" stroke="#1e1e1e" stroke-width="1" fill="none"></path></g><g transform="translate(789.8487497965494 1240.1226042974513) rotate(0 53.07196044921875 20)"><text x="53.07196044921875" y="0" font-family="Virgil, Segoe UI Emoji" font-size="16px" fill="#1e1e1e" text-anchor="middle" style="white-space: pre;" direction="ltr" dominant-baseline="text-before-edge">ask people of</text><text x="53.07196044921875" y="20" font-family="Virgil, Segoe UI Emoji" font-size="16px" fill="#1e1e1e" text-anchor="middle" style="white-space: pre;" direction="ltr" dominant-baseline="text-before-edge">the exiled</text></g><g transform="translate(906.3047968546549 1149.1059773036363) rotate(0 102.41593170166016 40)"><text x="102.41593170166016" y="0" font-family="Virgil, Segoe UI Emoji" font-size="16px" fill="#1971c2" text-anchor="middle" style="white-space: pre;" direction="ltr" dominant-baseline="text-before-edge">Solution Architect •</text><text x="102.41593170166016" y="20" font-family="Virgil, Segoe UI Emoji" font-size="16px" fill="#1971c2" text-anchor="middle" style="white-space: pre;" direction="ltr" dominant-baseline="text-before-edge">Official Support •</text><text x="102.41593170166016" y="40" font-family="Virgil, Segoe UI Emoji" font-size="16px" fill="#1971c2" text-anchor="middle" style="white-space: pre;" direction="ltr" dominant-baseline="text-before-edge">Subject Matter Experts •</text><text x="102.41593170166016" y="60" font-family="Virgil, Segoe UI Emoji" font-size="16px" fill="#1971c2" text-anchor="middle" style="white-space: pre;" direction="ltr" dominant-baseline="text-before-edge">Principals</text></g><g stroke-linecap="round"><g transform="translate(843.9207102457682 1125.3725890386622) rotate(0 -1.1999969482421875 31.100021362304688)"><path d="M0 0 C-0.4 10.37, -2 51.83, -2.4 62.2 M0 0 C-0.4 10.37, -2 51.83, -2.4 62.2" stroke="#1e1e1e" stroke-width="1" fill="none"></path></g><g transform="translate(843.9207102457682 1125.3725890386622) rotate(0 -1.1999969482421875 31.100021362304688)"><path d="M-11.57 33.63 C-8.1 44.43, -4.64 55.22, -2.4 62.2 M-11.57 33.63 C-9.28 40.74, -7 47.85, -2.4 62.2" stroke="#1e1e1e" stroke-width="1" fill="none"></path></g><g transform="translate(843.9207102457682 1125.3725890386622) rotate(0 -1.1999969482421875 31.100021362304688)"><path d="M8.94 34.43 C4.66 44.92, 0.37 55.41, -2.4 62.2 M8.94 34.43 C6.12 41.34, 3.29 48.25, -2.4 62.2" stroke="#1e1e1e" stroke-width="1" fill="none"></path></g></g><mask></mask><g stroke-linecap="round" transform="translate(665.9207102457682 1386.0226821172755) rotate(0 176.8000030517578 90)"><path d="M221.25 22.75 C245.97 38.71, 277.02 54.51, 309.35 68.25 M221.25 22.75 C253.19 37.69, 282.55 55.26, 309.35 68.25 M309.35 68.25 C351.79 92.88, 355.26 94.66, 309.35 113.75 M309.35 68.25 C356.25 89.27, 357.42 91.41, 309.35 113.75 M309.35 113.75 C278.75 129.93, 246.92 142.18, 221.25 157.25 M309.35 113.75 C283.04 125.34, 257.16 138.54, 221.25 157.25 M221.25 157.25 C174.43 179.7, 180.56 179.78, 132.75 157.25 M221.25 157.25 C180.69 181, 173.05 178, 132.75 157.25 M132.75 157.25 C103.35 143.61, 70.27 127.39, 44.25 113.75 M132.75 157.25 C113.35 148.15, 94.36 138.08, 44.25 113.75 M44.25 113.75 C-3.97 89.89, -3.09 92.69, 44.25 68.25 M44.25 113.75 C3.63 92.6, -4.51 91.55, 44.25 68.25 M44.25 68.25 C65.26 61.62, 77.14 46.06, 132.75 22.75 M44.25 68.25 C71.36 51.96, 102.24 36.73, 132.75 22.75 M132.75 22.75 C173.01 -1.83, 174.07 -1.41, 221.25 22.75 M132.75 22.75 C172.66 -4.18, 177.02 -1.08, 221.25 22.75" stroke="#1e1e1e" stroke-width="1" fill="none"></path></g><g transform="translate(760.1487681070963 1436.0226821172755) rotate(0 82.67194366455078 40)"><text x="82.67194366455078" y="0" font-family="Virgil, Segoe UI Emoji" font-size="16px" fill="#1e1e1e" text-anchor="middle" style="white-space: pre;" direction="ltr" dominant-baseline="text-before-edge">escalate to leader </text><text x="82.67194366455078" y="20" font-family="Virgil, Segoe UI Emoji" font-size="16px" fill="#1e1e1e" text-anchor="middle" style="white-space: pre;" direction="ltr" dominant-baseline="text-before-edge">as a blocker, inform </text><text x="82.67194366455078" y="40" font-family="Virgil, Segoe UI Emoji" font-size="16px" fill="#1e1e1e" text-anchor="middle" style="white-space: pre;" direction="ltr" dominant-baseline="text-before-edge">issue ariser, inform </text><text x="82.67194366455078" y="60" font-family="Virgil, Segoe UI Emoji" font-size="16px" fill="#1e1e1e" text-anchor="middle" style="white-space: pre;" direction="ltr" dominant-baseline="text-before-edge">internal stakeholders</text></g><g stroke-linecap="round"><g transform="translate(841.5207163492838 1333.672607349209) rotate(0 1.1999969482421875 21.899993896484375)"><path d="M0 0 C0.4 7.3, 2 36.5, 2.4 43.8 M0 0 C0.4 7.3, 2 36.5, 2.4 43.8" stroke="#1e1e1e" stroke-width="1" fill="none"></path></g><g transform="translate(841.5207163492838 1333.672607349209) rotate(0 1.1999969482421875 21.899993896484375)"><path d="M-6.22 23.63 C-4.34 28.03, -2.46 32.43, 2.4 43.8 M-6.22 23.63 C-3.01 31.13, 0.19 38.62, 2.4 43.8" stroke="#1e1e1e" stroke-width="1" fill="none"></path></g><g transform="translate(841.5207163492838 1333.672607349209) rotate(0 1.1999969482421875 21.899993896484375)"><path d="M8.76 22.81 C7.37 27.39, 5.99 31.97, 2.4 43.8 M8.76 22.81 C6.4 30.61, 4.03 38.41, 2.4 43.8" stroke="#1e1e1e" stroke-width="1" fill="none"></path></g></g><mask></mask><g transform="translate(871.8986765543619 727.2725829351467) rotate(0 22.071990966796875 10)"><text x="22.071990966796875" y="0" font-family="Virgil, Segoe UI Emoji" font-size="16px" fill="#e03131" text-anchor="middle" style="white-space: pre;" direction="ltr" dominant-baseline="text-before-edge">canod</text></g><g transform="translate(873.4986521402994 943.9725798833889) rotate(0 22.071990966796875 10)"><text x="22.071990966796875" y="0" font-family="Virgil, Segoe UI Emoji" font-size="16px" fill="#e03131" text-anchor="middle" style="white-space: pre;" direction="ltr" dominant-baseline="text-before-edge">canod</text></g><g transform="translate(773.0986277262369 1146.2725829351466) rotate(0 22.071990966796875 10)"><text x="22.071990966796875" y="0" font-family="Virgil, Segoe UI Emoji" font-size="16px" fill="#e03131" text-anchor="middle" style="white-space: pre;" direction="ltr" dominant-baseline="text-before-edge">canod</text></g><g transform="translate(871.2986399332682 1342.0725707281154) rotate(0 22.071990966796875 10)"><text x="22.071990966796875" y="0" font-family="Virgil, Segoe UI Emoji" font-size="16px" fill="#e03131" text-anchor="middle" style="white-space: pre;" direction="ltr" dominant-baseline="text-before-edge">canod</text></g><g stroke-linecap="round"><g transform="translate(663.2373504638672 1482.2226053147037) rotate(0 -109.99999260548097 -520.3334215876537)"><path d="M0 0 C-46.44 -89.5, -288.44 -363.56, -278.67 -537 C-268.89 -710.44, 2.44 -956.72, 58.67 -1040.67 M0 0 C-46.44 -89.5, -288.44 -363.56, -278.67 -537 C-268.89 -710.44, 2.44 -956.72, 58.67 -1040.67" stroke="#1e1e1e" stroke-width="1" fill="none"></path></g><g transform="translate(663.2373504638672 1482.2226053147037) rotate(0 -109.99999260548097 -520.3334215876537)"><path d="M48.27 -1012.53 C52.41 -1023.73, 56.55 -1034.94, 58.67 -1040.67 M48.27 -1012.53 C51.7 -1021.83, 55.14 -1031.13, 58.67 -1040.67" stroke="#1e1e1e" stroke-width="1" fill="none"></path></g><g transform="translate(663.2373504638672 1482.2226053147037) rotate(0 -109.99999260548097 -520.3334215876537)"><path d="M32.61 -1025.8 C42.99 -1031.72, 53.36 -1037.64, 58.67 -1040.67 M32.61 -1025.8 C41.22 -1030.71, 49.83 -1035.63, 58.67 -1040.67" stroke="#1e1e1e" stroke-width="1" fill="none"></path></g></g><mask></mask><g transform="translate(560.7787501017251 1266.972640918545) rotate(0 62.791954040527344 20)"><text x="62.791954040527344" y="0" font-family="Virgil, Segoe UI Emoji" font-size="16px" fill="#1e1e1e" text-anchor="middle" style="white-space: pre;" direction="ltr" dominant-baseline="text-before-edge">while waiting for</text><text x="62.791954040527344" y="20" font-family="Virgil, Segoe UI Emoji" font-size="16px" fill="#1e1e1e" text-anchor="middle" style="white-space: pre;" direction="ltr" dominant-baseline="text-before-edge">answer</text></g><g stroke-linecap="round" transform="translate(93.23731994628918 1103.2892429896717) rotate(0 102.00000000000001 55.099998474121094)"><path d="M27.55 0 C64.06 1.02, 95.39 -2.96, 176.45 0 M27.55 0 C77.56 0.01, 125.8 -0.42, 176.45 0 M176.45 0 C197.54 -0.35, 206.56 7.44, 204 27.55 M176.45 0 C194.28 -3.58, 201.64 8.94, 204 27.55 M204 27.55 C203.91 47.21, 203.46 69.09, 204 82.65 M204 27.55 C206.34 43.86, 205.03 57.71, 204 82.65 M204 82.65 C200.66 102.08, 196.77 112.22, 176.45 110.2 M204 82.65 C203.92 97.61, 190.93 107.16, 176.45 110.2 M176.45 110.2 C123.4 112.98, 75.88 114.06, 27.55 110.2 M176.45 110.2 C126.71 109.62, 76.35 111.94, 27.55 110.2 M27.55 110.2 C8.35 111.51, 2.69 102.3, 0 82.65 M27.55 110.2 C12.11 113.48, -4.26 101.44, 0 82.65 M0 82.65 C3.5 71.06, 0.81 51.97, 0 27.55 M0 82.65 C-0.26 66.81, 0.07 50.79, 0 27.55 M0 27.55 C-0.07 7.79, 11.51 1.59, 27.55 0 M0 27.55 C1.58 9.85, 4.7 1.33, 27.55 0" stroke="#1e1e1e" stroke-width="1" fill="none"></path></g><g transform="translate(99.3253860473634 1128.3892414637928) rotate(0 95.91193389892578 30)"><text x="95.91193389892578" y="0" font-family="Virgil, Segoe UI Emoji" font-size="16px" fill="#1e1e1e" text-anchor="middle" style="white-space: pre;" direction="ltr" dominant-baseline="text-before-edge">do Among Us with </text><text x="95.91193389892578" y="20" font-family="Virgil, Segoe UI Emoji" font-size="16px" fill="#1e1e1e" text-anchor="middle" style="white-space: pre;" direction="ltr" dominant-baseline="text-before-edge">friends whom you dislike </text><text x="95.91193389892578" y="40" font-family="Virgil, Segoe UI Emoji" font-size="16px" fill="#1e1e1e" text-anchor="middle" style="white-space: pre;" direction="ltr" dominant-baseline="text-before-edge">for 3 rounds</text></g><g stroke-linecap="round"><g transform="translate(675.2372690836588 1494.889282153897) rotate(0 -241.99999491373694 -132.83327738444007)"><path d="M0 0 C-58 -7.39, -267.33 -0.06, -348 -44.33 C-428.67 -88.61, -461.33 -228.78, -484 -265.67 M0 0 C-58 -7.39, -267.33 -0.06, -348 -44.33 C-428.67 -88.61, -461.33 -228.78, -484 -265.67" stroke="#1e1e1e" stroke-width="1" fill="none"></path></g><g transform="translate(675.2372690836588 1494.889282153897) rotate(0 -241.99999491373694 -132.83327738444007)"><path d="M-463.38 -243.88 C-471.12 -252.05, -478.85 -260.23, -484 -265.67 M-463.38 -243.88 C-470.68 -251.59, -477.99 -259.31, -484 -265.67" stroke="#1e1e1e" stroke-width="1" fill="none"></path></g><g transform="translate(675.2372690836588 1494.889282153897) rotate(0 -241.99999491373694 -132.83327738444007)"><path d="M-482.21 -235.72 C-482.88 -246.96, -483.55 -258.19, -484 -265.67 M-482.21 -235.72 C-482.85 -246.33, -483.48 -256.93, -484 -265.67" stroke="#1e1e1e" stroke-width="1" fill="none"></path></g></g><mask></mask><g transform="translate(449.7786890665691 1512.8892618088448) rotate(0 62.791954040527344 20)"><text x="62.791954040527344" y="0" font-family="Virgil, Segoe UI Emoji" font-size="16px" fill="#1e1e1e" text-anchor="middle" style="white-space: pre;" direction="ltr" dominant-baseline="text-before-edge">while waiting for</text><text x="62.791954040527344" y="20" font-family="Virgil, Segoe UI Emoji" font-size="16px" fill="#1e1e1e" text-anchor="middle" style="white-space: pre;" direction="ltr" dominant-baseline="text-before-edge">answer</text></g><g stroke-linecap="round"><g transform="translate(195.23731994628906 1091.5559488205636) rotate(0 264.1229517826207 -328.89384321459113)"><path d="M0 0 C17.11 -74.72, 14.63 -338.7, 102.67 -448.33 C190.71 -557.96, 457.32 -622.88, 528.25 -657.79 M0 0 C17.11 -74.72, 14.63 -338.7, 102.67 -448.33 C190.71 -557.96, 457.32 -622.88, 528.25 -657.79" stroke="#1e1e1e" stroke-width="1" fill="none"></path></g><g transform="translate(195.23731994628906 1091.5559488205636) rotate(0 264.1229517826207 -328.89384321459113)"><path d="M505.45 -638.29 C511.44 -643.41, 517.43 -648.54, 528.25 -657.79 M505.45 -638.29 C513.36 -645.06, 521.27 -651.82, 528.25 -657.79" stroke="#1e1e1e" stroke-width="1" fill="none"></path></g><g transform="translate(195.23731994628906 1091.5559488205636) rotate(0 264.1229517826207 -328.89384321459113)"><path d="M498.25 -657.51 C506.13 -657.58, 514.02 -657.65, 528.25 -657.79 M498.25 -657.51 C508.66 -657.6, 519.07 -657.7, 528.25 -657.79" stroke="#1e1e1e" stroke-width="1" fill="none"></path></g></g><mask></mask><g transform="translate(10 773.2225646246004) rotate(0 91.90396118164062 30)"><text x="91.90396118164062" y="0" font-family="Virgil, Segoe UI Emoji" font-size="16px" fill="#1e1e1e" text-anchor="middle" style="white-space: pre;" direction="ltr" dominant-baseline="text-before-edge">after all the betrayal</text><text x="91.90396118164062" y="20" font-family="Virgil, Segoe UI Emoji" font-size="16px" fill="#1e1e1e" text-anchor="middle" style="white-space: pre;" direction="ltr" dominant-baseline="text-before-edge">and confusion you make</text><text x="91.90396118164062" y="40" font-family="Virgil, Segoe UI Emoji" font-size="16px" fill="#1e1e1e" text-anchor="middle" style="white-space: pre;" direction="ltr" dominant-baseline="text-before-edge">to your friends</text></g><g stroke-linecap="round" transform="translate(1457.9040171305342 1017.6226882207922) rotate(0 102 55.099998474121094)"><path d="M27.55 0 C68.02 -1.8, 111.58 -2.05, 176.45 0 M27.55 0 C64.52 -3.91, 102.38 -1.71, 176.45 0 M176.45 0 C195.26 -3.35, 206.52 12.66, 204 27.55 M176.45 0 C199.07 1.11, 205.88 9.56, 204 27.55 M204 27.55 C204.76 47.59, 207.51 62.33, 204 82.65 M204 27.55 C202.75 44.32, 203.69 64.61, 204 82.65 M204 82.65 C207.75 102.02, 192.56 107.86, 176.45 110.2 M204 82.65 C201.73 97.38, 194.91 108.59, 176.45 110.2 M176.45 110.2 C124.27 111.97, 64.68 109.09, 27.55 110.2 M176.45 110.2 C136.14 107.47, 93.83 108.82, 27.55 110.2 M27.55 110.2 C11.79 109.97, -3.98 103.04, 0 82.65 M27.55 110.2 C4.97 106.5, -1.42 102.27, 0 82.65 M0 82.65 C2.26 63.14, 3.63 41.81, 0 27.55 M0 82.65 C-2.02 69.99, 1.66 56.63, 0 27.55 M0 27.55 C-3.89 12.89, 8.59 1.54, 27.55 0 M0 27.55 C-4.25 10.73, 13.3 -3.11, 27.55 0" stroke="#1e1e1e" stroke-width="1" fill="none"></path></g><g transform="translate(1480.4160563151045 1032.7226866949131) rotate(0 79.48796081542969 40)"><text x="79.48796081542969" y="0" font-family="Virgil, Segoe UI Emoji" font-size="16px" fill="#1e1e1e" text-anchor="middle" style="white-space: pre;" direction="ltr" dominant-baseline="text-before-edge">do whatever they </text><text x="79.48796081542969" y="20" font-family="Virgil, Segoe UI Emoji" font-size="16px" fill="#1e1e1e" text-anchor="middle" style="white-space: pre;" direction="ltr" dominant-baseline="text-before-edge">suggest and dont </text><text x="79.48796081542969" y="40" font-family="Virgil, Segoe UI Emoji" font-size="16px" fill="#1e1e1e" text-anchor="middle" style="white-space: pre;" direction="ltr" dominant-baseline="text-before-edge">forget to bang you </text><text x="79.48796081542969" y="60" font-family="Virgil, Segoe UI Emoji" font-size="16px" fill="#1e1e1e" text-anchor="middle" style="white-space: pre;" direction="ltr" dominant-baseline="text-before-edge">head 4 times</text></g><g stroke-linecap="round"><g transform="translate(1028.5707041422534 1481.6392618088448) rotate(0 236.2762243070186 -170.4999542236327)"><path d="M0 0 C41.33 -28.67, 169.24 -115.17, 248 -172 C326.76 -228.83, 435.13 -312.83, 472.55 -341 M0 0 C41.33 -28.67, 169.24 -115.17, 248 -172 C326.76 -228.83, 435.13 -312.83, 472.55 -341" stroke="#1e1e1e" stroke-width="1" fill="none"></path></g><g transform="translate(1028.5707041422534 1481.6392618088448) rotate(0 236.2762243070186 -170.4999542236327)"><path d="M456.35 -315.75 C462.22 -324.91, 468.1 -334.06, 472.55 -341 M456.35 -315.75 C460.73 -322.59, 465.12 -329.42, 472.55 -341" stroke="#1e1e1e" stroke-width="1" fill="none"></path></g><g transform="translate(1028.5707041422534 1481.6392618088448) rotate(0 236.2762243070186 -170.4999542236327)"><path d="M443.91 -332.08 C454.3 -335.31, 464.68 -338.55, 472.55 -341 M443.91 -332.08 C451.66 -334.49, 459.41 -336.91, 472.55 -341" stroke="#1e1e1e" stroke-width="1" fill="none"></path></g></g><mask></mask><g stroke-linecap="round"><g transform="translate(967.2372894287116 1256.6392618088453) rotate(0 238.09168370564765 -84.51760514970852)"><path d="M0 0 C30 -6.28, 100.64 -9.49, 180 -37.67 C259.36 -65.84, 426.82 -147.14, 476.18 -169.04 M0 0 C30 -6.28, 100.64 -9.49, 180 -37.67 C259.36 -65.84, 426.82 -147.14, 476.18 -169.04" stroke="#1e1e1e" stroke-width="1" fill="none"></path></g><g transform="translate(967.2372894287116 1256.6392618088453) rotate(0 238.09168370564765 -84.51760514970852)"><path d="M454.9 -147.89 C459.17 -152.14, 463.45 -156.38, 476.18 -169.04 M454.9 -147.89 C460.82 -153.77, 466.73 -159.65, 476.18 -169.04" stroke="#1e1e1e" stroke-width="1" fill="none"></path></g><g transform="translate(967.2372894287116 1256.6392618088453) rotate(0 238.09168370564765 -84.51760514970852)"><path d="M446.29 -166.52 C452.29 -167.02, 458.3 -167.53, 476.18 -169.04 M446.29 -166.52 C454.6 -167.22, 462.91 -167.92, 476.18 -169.04" stroke="#1e1e1e" stroke-width="1" fill="none"></path></g></g><mask></mask><g stroke-linecap="round"><g transform="translate(950.5010720721016 1060.8498110553105) rotate(0 249.701370803956 0.23130240160998028)"><path d="M0 0 C83.23 0.08, 416.17 0.39, 499.4 0.46 M0 0 C83.23 0.08, 416.17 0.39, 499.4 0.46" stroke="#1e1e1e" stroke-width="1" fill="none"></path></g><g transform="translate(950.5010720721016 1060.8498110553105) rotate(0 249.701370803956 0.23130240160998028)"><path d="M471.2 10.7 C479.68 7.62, 488.15 4.55, 499.4 0.46 M471.2 10.7 C480.58 7.29, 489.97 3.89, 499.4 0.46" stroke="#1e1e1e" stroke-width="1" fill="none"></path></g><g transform="translate(950.5010720721016 1060.8498110553105) rotate(0 249.701370803956 0.23130240160998028)"><path d="M471.22 -9.82 C479.69 -6.73, 488.16 -3.64, 499.4 0.46 M471.22 -9.82 C480.6 -6.4, 489.97 -2.98, 499.4 0.46" stroke="#1e1e1e" stroke-width="1" fill="none"></path></g></g><mask></mask><g stroke-linecap="round" transform="translate(1350.5704396565761 349.7893472580643) rotate(0 102 55.099998474121094)"><path d="M27.55 0 C73.18 2.45, 114.17 3.84, 176.45 0 M27.55 0 C86.61 1.13, 144.49 2.14, 176.45 0 M176.45 0 C196.21 2.56, 207.7 12.57, 204 27.55 M176.45 0 C197.91 -0.76, 206.44 11.67, 204 27.55 M204 27.55 C203.4 47.58, 204.23 59.22, 204 82.65 M204 27.55 C204.48 49.94, 203.95 67.76, 204 82.65 M204 82.65 C204.21 102.55, 193.92 112.58, 176.45 110.2 M204 82.65 C206.56 99.54, 194.14 108.93, 176.45 110.2 M176.45 110.2 C145.32 104.97, 112.88 104.92, 27.55 110.2 M176.45 110.2 C131.2 108.51, 81.7 105.77, 27.55 110.2 M27.55 110.2 C8.47 111.86, 0.05 99.15, 0 82.65 M27.55 110.2 C5.48 107.71, -0.84 103.14, 0 82.65 M0 82.65 C-1.64 63.65, 0.33 42.61, 0 27.55 M0 82.65 C0.06 65.96, 0.51 49.07, 0 27.55 M0 27.55 C0.65 9.83, 6.97 -3.69, 27.55 0 M0 27.55 C-0.63 13.41, 10.64 0.81, 27.55 0" stroke="#1e1e1e" stroke-width="1" fill="none"></path></g><g transform="translate(1356.546498616537 374.8893457321854) rotate(0 96.02394104003906 30)"><text x="96.02394104003906" y="0" font-family="Virgil, Segoe UI Emoji" font-size="16px" fill="#1e1e1e" text-anchor="middle" style="white-space: pre;" direction="ltr" dominant-baseline="text-before-edge">test on your local and </text><text x="96.02394104003906" y="20" font-family="Virgil, Segoe UI Emoji" font-size="16px" fill="#1e1e1e" text-anchor="middle" style="white-space: pre;" direction="ltr" dominant-baseline="text-before-edge">make sure it</text><text x="96.02394104003906" y="40" font-family="Virgil, Segoe UI Emoji" font-size="16px" fill="#1e1e1e" text-anchor="middle" style="white-space: pre;" direction="ltr" dominant-baseline="text-before-edge">WORKS ON MY MACHINE</text></g><g stroke-linecap="round"><g transform="translate(961.7816401492407 434.5725108624376) rotate(0 188.06107659286042 -12.174931157248466)"><path d="M0 0 C30.02 -4.06, 117.44 -20.51, 180.12 -24.35 C242.81 -28.19, 343.46 -23.24, 376.12 -23.02 M0 0 C30.02 -4.06, 117.44 -20.51, 180.12 -24.35 C242.81 -28.19, 343.46 -23.24, 376.12 -23.02" stroke="#1e1e1e" stroke-width="1" fill="none"></path></g><g transform="translate(961.7816401492407 434.5725108624376) rotate(0 188.06107659286042 -12.174931157248466)"><path d="M347.69 -13.46 C358.55 -17.11, 369.42 -20.76, 376.12 -23.02 M347.69 -13.46 C353.68 -15.47, 359.67 -17.48, 376.12 -23.02" stroke="#1e1e1e" stroke-width="1" fill="none"></path></g><g transform="translate(961.7816401492407 434.5725108624376) rotate(0 188.06107659286042 -12.174931157248466)"><path d="M348.19 -33.97 C358.87 -29.79, 369.54 -25.6, 376.12 -23.02 M348.19 -33.97 C354.08 -31.66, 359.96 -29.36, 376.12 -23.02" stroke="#1e1e1e" stroke-width="1" fill="none"></path></g></g><mask></mask><g stroke-linecap="round"><g transform="translate(957.9037933349616 632.8893508184484) rotate(0 189.99999999999994 -100.83334604899088)"><path d="M0 0 C32.44 -14.44, 131.33 -53.06, 194.67 -86.67 C258 -120.28, 349.11 -182.5, 380 -201.67 M0 0 C32.44 -14.44, 131.33 -53.06, 194.67 -86.67 C258 -120.28, 349.11 -182.5, 380 -201.67" stroke="#1e1e1e" stroke-width="1" fill="none"></path></g><g transform="translate(957.9037933349616 632.8893508184484) rotate(0 189.99999999999994 -100.83334604899088)"><path d="M361.89 -177.75 C366.68 -184.07, 371.46 -190.38, 380 -201.67 M361.89 -177.75 C368.25 -186.15, 374.61 -194.55, 380 -201.67" stroke="#1e1e1e" stroke-width="1" fill="none"></path></g><g transform="translate(957.9037933349616 632.8893508184484) rotate(0 189.99999999999994 -100.83334604899088)"><path d="M350.75 -194.98 C358.48 -196.75, 366.2 -198.51, 380 -201.67 M350.75 -194.98 C361.03 -197.33, 371.3 -199.68, 380 -201.67" stroke="#1e1e1e" stroke-width="1" fill="none"></path></g></g><mask></mask><g stroke-linecap="round"><g transform="translate(1008.5705006917324 845.2226739792558) rotate(0 177.3333231608072 -186.16666158040366)"><path d="M0 0 C33.56 -29.83, 142.22 -116.94, 201.33 -179 C260.44 -241.06, 329.11 -340.11, 354.67 -372.33 M0 0 C33.56 -29.83, 142.22 -116.94, 201.33 -179 C260.44 -241.06, 329.11 -340.11, 354.67 -372.33" stroke="#1e1e1e" stroke-width="1" fill="none"></path></g><g transform="translate(1008.5705006917324 845.2226739792558) rotate(0 177.3333231608072 -186.16666158040366)"><path d="M345.95 -343.63 C347.7 -349.39, 349.45 -355.16, 354.67 -372.33 M345.95 -343.63 C348.38 -351.63, 350.8 -359.62, 354.67 -372.33" stroke="#1e1e1e" stroke-width="1" fill="none"></path></g><g transform="translate(1008.5705006917324 845.2226739792558) rotate(0 177.3333231608072 -186.16666158040366)"><path d="M329.53 -355.95 C334.58 -359.24, 339.63 -362.53, 354.67 -372.33 M329.53 -355.95 C336.54 -360.51, 343.54 -365.08, 354.67 -372.33" stroke="#1e1e1e" stroke-width="1" fill="none"></path></g></g><mask></mask><g stroke-linecap="round"><g transform="translate(1526.6973439259123 1007.5560988653234) rotate(0 -41.46017656751337 -264.6667226155598)"><path d="M0 0 C0.09 -44.06, 14.45 -176.11, 0.54 -264.33 C-13.37 -352.56, -69.46 -485.17, -83.46 -529.33 M0 0 C0.09 -44.06, 14.45 -176.11, 0.54 -264.33 C-13.37 -352.56, -69.46 -485.17, -83.46 -529.33" stroke="#1e1e1e" stroke-width="1" fill="none"></path></g><g transform="translate(1526.6973439259123 1007.5560988653234) rotate(0 -41.46017656751337 -264.6667226155598)"><path d="M-64.23 -506.31 C-69.82 -512.99, -75.4 -519.68, -83.46 -529.33 M-64.23 -506.31 C-71.06 -514.49, -77.9 -522.67, -83.46 -529.33" stroke="#1e1e1e" stroke-width="1" fill="none"></path></g><g transform="translate(1526.6973439259123 1007.5560988653234) rotate(0 -41.46017656751337 -264.6667226155598)"><path d="M-83.53 -499.33 C-83.51 -508.05, -83.49 -516.76, -83.46 -529.33 M-83.53 -499.33 C-83.51 -509.99, -83.48 -520.65, -83.46 -529.33" stroke="#1e1e1e" stroke-width="1" fill="none"></path></g></g><mask></mask><g transform="translate(1051.8158162434902 385.88930504208133) rotate(0 13.087997436523438 10)"><text x="13.087997436523438" y="0" font-family="Virgil, Segoe UI Emoji" font-size="16px" fill="#2f9e44" text-anchor="middle" style="white-space: pre;" direction="ltr" dominant-baseline="text-before-edge">can</text></g><g transform="translate(1092.149169921876 601.555986967537) rotate(0 13.087997436523438 10)"><text x="13.087997436523438" y="0" font-family="Virgil, Segoe UI Emoji" font-size="16px" fill="#2f9e44" text-anchor="middle" style="white-space: pre;" direction="ltr" dominant-baseline="text-before-edge">can</text></g><g transform="translate(1131.4825642903652 761.5559869675369) rotate(0 13.087997436523438 10)"><text x="13.087997436523438" y="0" font-family="Virgil, Segoe UI Emoji" font-size="16px" fill="#2f9e44" text-anchor="middle" style="white-space: pre;" direction="ltr" dominant-baseline="text-before-edge">can</text></g><g transform="translate(1204.7892150878913 1021.3893101283442) rotate(0 75.44795227050781 10)"><text x="75.44795227050781" y="0" font-family="Virgil, Segoe UI Emoji" font-size="16px" fill="#2f9e44" text-anchor="middle" style="white-space: pre;" direction="ltr" dominant-baseline="text-before-edge">questions answered</text></g><g transform="translate(1250.1544520060227 1178.3893304733963) rotate(0 36.415977478027344 20)"><text x="36.415977478027344" y="0" font-family="Virgil, Segoe UI Emoji" font-size="16px" fill="#2f9e44" text-anchor="middle" style="white-space: pre;" direction="ltr" dominant-baseline="text-before-edge">questions</text><text x="36.415977478027344" y="20" font-family="Virgil, Segoe UI Emoji" font-size="16px" fill="#2f9e44" text-anchor="middle" style="white-space: pre;" direction="ltr" dominant-baseline="text-before-edge">answered</text></g><g transform="translate(1101.7438557942714 1446.3894627162347) rotate(0 78.15995788574219 20)"><text x="78.15995788574219" y="0" font-family="Virgil, Segoe UI Emoji" font-size="16px" fill="#2f9e44" text-anchor="middle" style="white-space: pre;" direction="ltr" dominant-baseline="text-before-edge">escalation solutions</text><text x="78.15995788574219" y="20" font-family="Virgil, Segoe UI Emoji" font-size="16px" fill="#2f9e44" text-anchor="middle" style="white-space: pre;" direction="ltr" dominant-baseline="text-before-edge">arrived</text></g><g transform="translate(1562.1917775472007 944.8893711635006) rotate(0 46.71197509765625 20)"><text x="46.71197509765625" y="0" font-family="Virgil, Segoe UI Emoji" font-size="16px" fill="#1e1e1e" text-anchor="middle" style="white-space: pre;" direction="ltr" dominant-baseline="text-before-edge">implement</text><text x="46.71197509765625" y="20" font-family="Virgil, Segoe UI Emoji" font-size="16px" fill="#1e1e1e" text-anchor="middle" style="white-space: pre;" direction="ltr" dominant-baseline="text-before-edge">the solution</text></g><g stroke-linecap="round" transform="translate(1765.2369842529306 347.205983407153) rotate(0 102 55.099998474121094)"><path d="M27.55 0 C90.15 -4.78, 148.3 -3.05, 176.45 0 M27.55 0 C58.86 3.04, 91.45 0.72, 176.45 0 M176.45 0 C195.29 -3.6, 202.12 5.94, 204 27.55 M176.45 0 C193.77 -1.03, 201.54 5.17, 204 27.55 M204 27.55 C201.29 41.93, 200.58 59.16, 204 82.65 M204 27.55 C204.46 37.46, 205.24 51.41, 204 82.65 M204 82.65 C203.26 104.71, 191.48 113.01, 176.45 110.2 M204 82.65 C207.47 97.44, 190.79 105.6, 176.45 110.2 M176.45 110.2 C130.68 108.89, 80.63 110.36, 27.55 110.2 M176.45 110.2 C121.96 110.37, 67.27 110.49, 27.55 110.2 M27.55 110.2 C8.65 112.07, -1.9 99.74, 0 82.65 M27.55 110.2 C6.17 113.67, -3.39 103.22, 0 82.65 M0 82.65 C-3.05 66.55, 0.5 51.35, 0 27.55 M0 82.65 C1.23 60.98, -2.13 38.87, 0 27.55 M0 27.55 C-3.66 9.78, 12.72 3.49, 27.55 0 M0 27.55 C2.03 12.83, 7.14 0.05, 27.55 0" stroke="#1e1e1e" stroke-width="1" fill="none"></path></g><g transform="translate(1778.0530319213876 372.3059818812741) rotate(0 89.18395233154297 30)"><text x="89.18395233154297" y="0" font-family="Virgil, Segoe UI Emoji" font-size="16px" fill="#1e1e1e" text-anchor="middle" style="white-space: pre;" direction="ltr" dominant-baseline="text-before-edge">test on integration </text><text x="89.18395233154297" y="20" font-family="Virgil, Segoe UI Emoji" font-size="16px" fill="#1e1e1e" text-anchor="middle" style="white-space: pre;" direction="ltr" dominant-baseline="text-before-edge">machine / development-</text><text x="89.18395233154297" y="40" font-family="Virgil, Segoe UI Emoji" font-size="16px" fill="#1e1e1e" text-anchor="middle" style="white-space: pre;" direction="ltr" dominant-baseline="text-before-edge">together machine</text></g><g transform="translate(1504.9998601277675 287.3059818812741) rotate(0 64.9039535522461 20)"><text x="64.9039535522461" y="0" font-family="Virgil, Segoe UI Emoji" font-size="16px" fill="#1971c2" text-anchor="middle" style="white-space: pre;" direction="ltr" dominant-baseline="text-before-edge">test by following</text><text x="64.9039535522461" y="20" font-family="Virgil, Segoe UI Emoji" font-size="16px" fill="#1971c2" text-anchor="middle" style="white-space: pre;" direction="ltr" dominant-baseline="text-before-edge">test case doc</text></g><g stroke-linecap="round"><g transform="translate(1569.9038136800136 412.97266380672977) rotate(0 91.33331298828125 0.49999237060546875)"><path d="M0 0 C30.44 0.17, 152.22 0.83, 182.67 1 M0 0 C30.44 0.17, 152.22 0.83, 182.67 1" stroke="#1e1e1e" stroke-width="1" fill="none"></path></g><g transform="translate(1569.9038136800136 412.97266380672977) rotate(0 91.33331298828125 0.49999237060546875)"><path d="M154.42 11.11 C160.29 9.01, 166.16 6.91, 182.67 1 M154.42 11.11 C162.09 8.36, 169.76 5.62, 182.67 1" stroke="#1e1e1e" stroke-width="1" fill="none"></path></g><g transform="translate(1569.9038136800136 412.97266380672977) rotate(0 91.33331298828125 0.49999237060546875)"><path d="M154.53 -9.41 C160.38 -7.25, 166.22 -5.09, 182.67 1 M154.53 -9.41 C162.17 -6.59, 169.82 -3.76, 182.67 1" stroke="#1e1e1e" stroke-width="1" fill="none"></path></g></g><mask></mask><g stroke-linecap="round" transform="translate(2139.903732299805 344.2059783208899) rotate(0 102 55.099998474121094)"><path d="M27.55 0 C69.87 -2.79, 105.3 -0.48, 176.45 0 M27.55 0 C60.46 -0.86, 90.55 0.73, 176.45 0 M176.45 0 C197.47 -1.42, 200.56 12.44, 204 27.55 M176.45 0 C197.67 3.82, 206.13 5.88, 204 27.55 M204 27.55 C204.76 38.97, 201.84 57.91, 204 82.65 M204 27.55 C204.16 43.35, 205.05 60.51, 204 82.65 M204 82.65 C207.14 102.87, 193.08 109.64, 176.45 110.2 M204 82.65 C203.44 97.56, 191.22 109.01, 176.45 110.2 M176.45 110.2 C129.32 109.55, 85.73 109.25, 27.55 110.2 M176.45 110.2 C140.77 109.83, 107.93 112.52, 27.55 110.2 M27.55 110.2 C12.69 109.05, -1.36 102.72, 0 82.65 M27.55 110.2 C11.13 111.3, -3.33 104.81, 0 82.65 M0 82.65 C-2.45 68.9, 0.85 49.77, 0 27.55 M0 82.65 C-0.28 59.58, -2.34 39.27, 0 27.55 M0 27.55 C2.92 8.04, 5.79 0.76, 27.55 0 M0 27.55 C0.37 5.45, 7.82 4.47, 27.55 0" stroke="#1e1e1e" stroke-width="1" fill="none"></path></g><g transform="translate(2165.41577911377 369.305976795011) rotate(0 76.48795318603516 30)"><text x="76.48795318603516" y="0" font-family="Virgil, Segoe UI Emoji" font-size="16px" fill="#1e1e1e" text-anchor="middle" style="white-space: pre;" direction="ltr" dominant-baseline="text-before-edge">test on Staging</text><text x="76.48795318603516" y="20" font-family="Virgil, Segoe UI Emoji" font-size="16px" fill="#1e1e1e" text-anchor="middle" style="white-space: pre;" direction="ltr" dominant-baseline="text-before-edge">with real data</text><text x="76.48795318603516" y="40" font-family="Virgil, Segoe UI Emoji" font-size="16px" fill="#1e1e1e" text-anchor="middle" style="white-space: pre;" direction="ltr" dominant-baseline="text-before-edge">with careful manner</text></g><g stroke-linecap="round" transform="translate(2578.570317586263 342.8726653326087) rotate(0 102 55.099998474121094)"><path d="M27.55 0 C66.66 -4.89, 108.48 -3.01, 176.45 0 M27.55 0 C79.61 1.11, 131.75 3.74, 176.45 0 M176.45 0 C196.14 -2.98, 203.08 5.73, 204 27.55 M176.45 0 C198.4 0.53, 204.54 5.66, 204 27.55 M204 27.55 C206.21 45.96, 201.8 65.36, 204 82.65 M204 27.55 C205.38 40.4, 206.46 55.59, 204 82.65 M204 82.65 C202.14 98.87, 193.53 109.95, 176.45 110.2 M204 82.65 C204.42 96.67, 191.08 106.92, 176.45 110.2 M176.45 110.2 C127.96 107.65, 80.78 110.74, 27.55 110.2 M176.45 110.2 C138.56 109.61, 102.93 110.41, 27.55 110.2 M27.55 110.2 C12.14 111.94, 2.77 100.67, 0 82.65 M27.55 110.2 C13.58 112.97, 2.92 100.38, 0 82.65 M0 82.65 C3 63.58, -3.56 47.84, 0 27.55 M0 82.65 C0.33 61.27, -0.36 41.48, 0 27.55 M0 27.55 C0.42 13.15, 7.02 3.43, 27.55 0 M0 27.55 C3.94 12.26, 9.7 -3.91, 27.55 0" stroke="#1e1e1e" stroke-width="1" fill="none"></path></g><g transform="translate(2597.0823720296225 367.97266380672977) rotate(0 83.48794555664062 30)"><text x="83.48794555664062" y="0" font-family="Virgil, Segoe UI Emoji" font-size="16px" fill="#1e1e1e" text-anchor="middle" style="white-space: pre;" direction="ltr" dominant-baseline="text-before-edge">deploy on Production</text><text x="83.48794555664062" y="20" font-family="Virgil, Segoe UI Emoji" font-size="16px" fill="#1e1e1e" text-anchor="middle" style="white-space: pre;" direction="ltr" dominant-baseline="text-before-edge">verify with real data</text><text x="83.48794555664062" y="40" font-family="Virgil, Segoe UI Emoji" font-size="16px" fill="#1e1e1e" text-anchor="middle" style="white-space: pre;" direction="ltr" dominant-baseline="text-before-edge">with noble manner</text></g><g stroke-linecap="round"><g transform="translate(1980.570419311524 403.63932030087034) rotate(0 74.66664632161451 -0.833282470703125)"><path d="M0 0 C24.89 -0.28, 124.44 -1.39, 149.33 -1.67 M0 0 C24.89 -0.28, 124.44 -1.39, 149.33 -1.67" stroke="#1e1e1e" stroke-width="1" fill="none"></path></g><g transform="translate(1980.570419311524 403.63932030087034) rotate(0 74.66664632161451 -0.833282470703125)"><path d="M121.26 8.91 C132.28 4.76, 143.29 0.61, 149.33 -1.67 M121.26 8.91 C127.52 6.55, 133.79 4.19, 149.33 -1.67" stroke="#1e1e1e" stroke-width="1" fill="none"></path></g><g transform="translate(1980.570419311524 403.63932030087034) rotate(0 74.66664632161451 -0.833282470703125)"><path d="M121.03 -11.61 C132.14 -7.71, 143.24 -3.81, 149.33 -1.67 M121.03 -11.61 C127.35 -9.39, 133.66 -7.17, 149.33 -1.67" stroke="#1e1e1e" stroke-width="1" fill="none"></path></g></g><mask></mask><g stroke-linecap="round"><g transform="translate(2357.903691609701 406.9727553594641) rotate(0 99.33334350585926 -4.166717529296932)"><path d="M0 0 C33.11 -1.39, 165.56 -6.94, 198.67 -8.33 M0 0 C33.11 -1.39, 165.56 -6.94, 198.67 -8.33" stroke="#1e1e1e" stroke-width="1" fill="none"></path></g><g transform="translate(2357.903691609701 406.9727553594641) rotate(0 99.33334350585926 -4.166717529296932)"><path d="M170.93 3.1 C176.54 0.79, 182.14 -1.52, 198.67 -8.33 M170.93 3.1 C176.55 0.78, 182.17 -1.54, 198.67 -8.33" stroke="#1e1e1e" stroke-width="1" fill="none"></path></g><g transform="translate(2357.903691609701 406.9727553594641) rotate(0 99.33334350585926 -4.166717529296932)"><path d="M170.07 -17.4 C175.85 -15.57, 181.63 -13.74, 198.67 -8.33 M170.07 -17.4 C175.87 -15.57, 181.66 -13.73, 198.67 -8.33" stroke="#1e1e1e" stroke-width="1" fill="none"></path></g></g><mask></mask><g transform="translate(1902.6664861043296 280.6393152146074) rotate(0 64.9039535522461 20.000000000000014)"><text x="64.9039535522461" y="0" font-family="Virgil, Segoe UI Emoji" font-size="16px" fill="#1971c2" text-anchor="middle" style="white-space: pre;" direction="ltr" dominant-baseline="text-before-edge">test by following</text><text x="64.9039535522461" y="20" font-family="Virgil, Segoe UI Emoji" font-size="16px" fill="#1971c2" text-anchor="middle" style="white-space: pre;" direction="ltr" dominant-baseline="text-before-edge">test case doc</text></g><g transform="translate(2147.666180928549 474.30597679501096) rotate(0 64.9039535522461 20)"><text x="64.9039535522461" y="0" font-family="Virgil, Segoe UI Emoji" font-size="16px" fill="#1971c2" text-anchor="middle" style="white-space: pre;" direction="ltr" dominant-baseline="text-before-edge">test by following</text><text x="64.9039535522461" y="20" font-family="Virgil, Segoe UI Emoji" font-size="16px" fill="#1971c2" text-anchor="middle" style="white-space: pre;" direction="ltr" dominant-baseline="text-before-edge">test case doc</text></g><g stroke-linecap="round"><g transform="translate(1437.9038441975913 344.63933047339646) rotate(0 -254.6666971842447 17.000058492024692)"><path d="M0 0 C-42.22 -2.67, -168.44 -24.33, -253.33 -16 C-338.22 -7.67, -466.67 39, -509.33 50 M0 0 C-42.22 -2.67, -168.44 -24.33, -253.33 -16 C-338.22 -7.67, -466.67 39, -509.33 50" stroke="#1e1e1e" stroke-width="1" fill="none"></path></g><g transform="translate(1437.9038441975913 344.63933047339646) rotate(0 -254.6666971842447 17.000058492024692)"><path d="M-485.31 32.03 C-491.62 36.75, -497.93 41.47, -509.33 50 M-485.31 32.03 C-494.87 39.18, -504.43 46.33, -509.33 50" stroke="#1e1e1e" stroke-width="1" fill="none"></path></g><g transform="translate(1437.9038441975913 344.63933047339646) rotate(0 -254.6666971842447 17.000058492024692)"><path d="M-479.38 51.67 C-487.25 51.23, -495.12 50.79, -509.33 50 M-479.38 51.67 C-491.3 51.01, -503.21 50.34, -509.33 50" stroke="#1e1e1e" stroke-width="1" fill="none"></path></g></g><mask></mask><g stroke-linecap="round"><g transform="translate(1412.5704396565761 476.9726536342037) rotate(0 -248.6666615804036 267.16669718424475)"><path d="M0 0 C-26 51.5, -73.11 219.94, -156 309 C-238.89 398.06, -440.44 496.78, -497.33 534.33 M0 0 C-26 51.5, -73.11 219.94, -156 309 C-238.89 398.06, -440.44 496.78, -497.33 534.33" stroke="#1e1e1e" stroke-width="1" fill="none"></path></g><g transform="translate(1412.5704396565761 476.9726536342037) rotate(0 -248.6666615804036 267.16669718424475)"><path d="M-478.13 511.28 C-485.29 519.87, -492.44 528.46, -497.33 534.33 M-478.13 511.28 C-482.4 516.41, -486.67 521.53, -497.33 534.33" stroke="#1e1e1e" stroke-width="1" fill="none"></path></g><g transform="translate(1412.5704396565761 476.9726536342037) rotate(0 -248.6666615804036 267.16669718424475)"><path d="M-467.81 529.02 C-478.81 531, -489.82 532.98, -497.33 534.33 M-467.81 529.02 C-474.37 530.2, -480.94 531.38, -497.33 534.33" stroke="#1e1e1e" stroke-width="1" fill="none"></path></g></g><mask></mask><g stroke-linecap="round"><g transform="translate(1767.2370859781904 474.305976795011) rotate(0 -418.6666615804036 275.00012715657545)"><path d="M0 0 C-55.78 50.64, -195.11 212.17, -334.67 303.83 C-474.22 395.5, -753.56 508.97, -837.33 550 M0 0 C-55.78 50.64, -195.11 212.17, -334.67 303.83 C-474.22 395.5, -753.56 508.97, -837.33 550" stroke="#1e1e1e" stroke-width="1" fill="none"></path></g><g transform="translate(1767.2370859781904 474.305976795011) rotate(0 -418.6666615804036 275.00012715657545)"><path d="M-815.88 529.03 C-824.09 537.05, -832.3 545.08, -837.33 550 M-815.88 529.03 C-821.12 534.15, -826.36 539.27, -837.33 550" stroke="#1e1e1e" stroke-width="1" fill="none"></path></g><g transform="translate(1767.2370859781904 474.305976795011) rotate(0 -418.6666615804036 275.00012715657545)"><path d="M-807.42 547.72 C-818.87 548.59, -830.31 549.47, -837.33 550 M-807.42 547.72 C-814.73 548.28, -822.03 548.83, -837.33 550" stroke="#1e1e1e" stroke-width="1" fill="none"></path></g></g><mask></mask><g stroke-linecap="round"><g transform="translate(2147.2371877034507 460.9726434616777) rotate(0 -600.6667073567706 287.50002543131507)"><path d="M0 0 C-87.78 52.19, -326.44 217.33, -526.67 313.17 C-726.89 409, -1088.89 531.36, -1201.33 575 M0 0 C-87.78 52.19, -326.44 217.33, -526.67 313.17 C-726.89 409, -1088.89 531.36, -1201.33 575" stroke="#1e1e1e" stroke-width="1" fill="none"></path></g><g transform="translate(2147.2371877034507 460.9726434616777) rotate(0 -600.6667073567706 287.50002543131507)"><path d="M-1178.39 555.67 C-1185.59 561.73, -1192.78 567.8, -1201.33 575 M-1178.39 555.67 C-1184.76 561.03, -1191.13 566.4, -1201.33 575" stroke="#1e1e1e" stroke-width="1" fill="none"></path></g><g transform="translate(2147.2371877034507 460.9726434616777) rotate(0 -600.6667073567706 287.50002543131507)"><path d="M-1171.33 574.94 C-1180.74 574.96, -1190.15 574.98, -1201.33 575 M-1171.33 574.94 C-1179.66 574.95, -1187.98 574.97, -1201.33 575" stroke="#1e1e1e" stroke-width="1" fill="none"></path></g></g><mask></mask><g stroke-linecap="round"><g transform="translate(2576.5704294840493 465.9726434616776) rotate(0 -807.333297729492 289.00001525878906)"><path d="M0 0 C-124 60.47, -474.89 266.5, -744 362.83 C-1013.11 459.17, -1469.56 542.14, -1614.67 578 M0 0 C-124 60.47, -474.89 266.5, -744 362.83 C-1013.11 459.17, -1469.56 542.14, -1614.67 578" stroke="#1e1e1e" stroke-width="1" fill="none"></path></g><g transform="translate(2576.5704294840493 465.9726434616776) rotate(0 -807.333297729492 289.00001525878906)"><path d="M-1589.33 561.94 C-1595.64 565.94, -1601.95 569.94, -1614.67 578 M-1589.33 561.94 C-1595.93 566.13, -1602.54 570.32, -1614.67 578" stroke="#1e1e1e" stroke-width="1" fill="none"></path></g><g transform="translate(2576.5704294840493 465.9726434616776) rotate(0 -807.333297729492 289.00001525878906)"><path d="M-1584.93 581.99 C-1592.34 581, -1599.75 580, -1614.67 578 M-1584.93 581.99 C-1592.69 580.95, -1600.44 579.91, -1614.67 578" stroke="#1e1e1e" stroke-width="1" fill="none"></path></g></g><mask></mask><g stroke-linecap="round"><g transform="translate(2659.237106323242 463.8059844244055) rotate(0 -865.3333282470701 416.500072479248)"><path d="M0 0 C-88.22 116.61, -240.89 560.83, -529.33 699.67 C-817.78 838.5, -1530.44 810.78, -1730.67 833 M0 0 C-88.22 116.61, -240.89 560.83, -529.33 699.67 C-817.78 838.5, -1530.44 810.78, -1730.67 833" stroke="#1e1e1e" stroke-width="1" fill="none"></path></g><g transform="translate(2659.237106323242 463.8059844244055) rotate(0 -865.3333282470701 416.500072479248)"><path d="M-1702.93 821.56 C-1710.6 824.72, -1718.27 827.89, -1730.67 833 M-1702.93 821.56 C-1710.82 824.82, -1718.71 828.07, -1730.67 833" stroke="#1e1e1e" stroke-width="1" fill="none"></path></g><g transform="translate(2659.237106323242 463.8059844244055) rotate(0 -865.3333282470701 416.500072479248)"><path d="M-1702.07 842.06 C-1709.98 839.56, -1717.88 837.05, -1730.67 833 M-1702.07 842.06 C-1710.2 839.49, -1718.34 836.91, -1730.67 833" stroke="#1e1e1e" stroke-width="1" fill="none"></path></g></g><mask></mask><g stroke-linecap="round"><g transform="translate(1836.5704803466801 339.38931521460734) rotate(0 -462.66667683919263 -39.99999364217123)"><path d="M0 0 C-36.22 -21.39, -63.11 -136.39, -217.33 -128.33 C-371.56 -120.28, -807.33 18.89, -925.33 48.33 M0 0 C-36.22 -21.39, -63.11 -136.39, -217.33 -128.33 C-371.56 -120.28, -807.33 18.89, -925.33 48.33" stroke="#1e1e1e" stroke-width="1" fill="none"></path></g><g transform="translate(1836.5704803466801 339.38931521460734) rotate(0 -462.66667683919263 -39.99999364217123)"><path d="M-900.99 30.8 C-909.38 36.85, -917.77 42.89, -925.33 48.33 M-900.99 30.8 C-907.57 35.54, -914.14 40.27, -925.33 48.33" stroke="#1e1e1e" stroke-width="1" fill="none"></path></g><g transform="translate(1836.5704803466801 339.38931521460734) rotate(0 -462.66667683919263 -39.99999364217123)"><path d="M-895.42 50.55 C-905.73 49.79, -916.04 49.02, -925.33 48.33 M-895.42 50.55 C-903.5 49.95, -911.58 49.35, -925.33 48.33" stroke="#1e1e1e" stroke-width="1" fill="none"></path></g></g><mask></mask><g stroke-linecap="round"><g transform="translate(2216.57048034668 334.38931521460734) rotate(0 -661.3333638509114 -90.99998792012533)"><path d="M0 0 C-58.22 -37, -128.89 -228.67, -349.33 -222 C-569.78 -215.33, -1160.44 -3.67, -1322.67 40 M0 0 C-58.22 -37, -128.89 -228.67, -349.33 -222 C-569.78 -215.33, -1160.44 -3.67, -1322.67 40" stroke="#1e1e1e" stroke-width="1" fill="none"></path></g><g transform="translate(2216.57048034668 334.38931521460734) rotate(0 -661.3333638509114 -90.99998792012533)"><path d="M-1298.79 21.84 C-1304.37 26.08, -1309.95 30.32, -1322.67 40 M-1298.79 21.84 C-1303.81 25.66, -1308.83 29.48, -1322.67 40" stroke="#1e1e1e" stroke-width="1" fill="none"></path></g><g transform="translate(2216.57048034668 334.38931521460734) rotate(0 -661.3333638509114 -90.99998792012533)"><path d="M-1292.7 41.44 C-1299.7 41.1, -1306.7 40.76, -1322.67 40 M-1292.7 41.44 C-1299 41.13, -1305.3 40.83, -1322.67 40" stroke="#1e1e1e" stroke-width="1" fill="none"></path></g></g><mask></mask><g stroke-linecap="round"><g transform="translate(2577.9038950602217 334.3893024989498) rotate(0 -852.0000203450519 -148.49997202555335)"><path d="M0 0 C-84.89 -54.06, -225.33 -328.89, -509.33 -324.33 C-793.33 -319.78, -1504.89 -31.28, -1704 27.33 M0 0 C-84.89 -54.06, -225.33 -328.89, -509.33 -324.33 C-793.33 -319.78, -1504.89 -31.28, -1704 27.33" stroke="#1e1e1e" stroke-width="1" fill="none"></path></g><g transform="translate(2577.9038950602217 334.3893024989498) rotate(0 -852.0000203450519 -148.49997202555335)"><path d="M-1680.71 8.43 C-1686.68 13.28, -1692.66 18.13, -1704 27.33 M-1680.71 8.43 C-1687.99 14.34, -1695.28 20.26, -1704 27.33" stroke="#1e1e1e" stroke-width="1" fill="none"></path></g><g transform="translate(2577.9038950602217 334.3893024989498) rotate(0 -852.0000203450519 -148.49997202555335)"><path d="M-1674 27.83 C-1681.7 27.7, -1689.4 27.57, -1704 27.33 M-1674 27.83 C-1683.39 27.67, -1692.77 27.52, -1704 27.33" stroke="#1e1e1e" stroke-width="1" fill="none"></path></g></g><mask></mask><g transform="translate(1236.77054087321 338.3893050420814) rotate(0 23.79998016357422 20)"><text x="23.79998016357422" y="0" font-family="Virgil, Segoe UI Emoji" font-size="16px" fill="#e03131" text-anchor="middle" style="white-space: pre;" direction="ltr" dominant-baseline="text-before-edge">issue</text><text x="23.79998016357422" y="20" font-family="Virgil, Segoe UI Emoji" font-size="16px" fill="#e03131" text-anchor="middle" style="white-space: pre;" direction="ltr" dominant-baseline="text-before-edge">arised</text></g><g transform="translate(1765.0773239135747 216.7226510910723) rotate(0 47.15996551513672 10)"><text x="47.15996551513672" y="0" font-family="Virgil, Segoe UI Emoji" font-size="16px" fill="#e03131" text-anchor="middle" style="white-space: pre;" direction="ltr" dominant-baseline="text-before-edge">issue arised</text></g><g transform="translate(2171.0772832234707 231.38932284400187) rotate(0 47.15996551513672 10)"><text x="47.15996551513672" y="0" font-family="Virgil, Segoe UI Emoji" font-size="16px" fill="#e03131" text-anchor="middle" style="white-space: pre;" direction="ltr" dominant-baseline="text-before-edge">issue arised</text></g><g transform="translate(2569.743970235189 277.38930758521286) rotate(0 47.15996551513672 10)"><text x="47.15996551513672" y="0" font-family="Virgil, Segoe UI Emoji" font-size="16px" fill="#e03131" text-anchor="middle" style="white-space: pre;" direction="ltr" dominant-baseline="text-before-edge">issue arised</text></g><g transform="translate(2693.354415893555 475.38928724016074) rotate(0 91.2159423828125 50)"><text x="91.2159423828125" y="0" font-family="Virgil, Segoe UI Emoji" font-size="16px" fill="#1971c2" text-anchor="middle" style="white-space: pre;" direction="ltr" dominant-baseline="text-before-edge">verify by following</text><text x="91.2159423828125" y="20" font-family="Virgil, Segoe UI Emoji" font-size="16px" fill="#1971c2" text-anchor="middle" style="white-space: pre;" direction="ltr" dominant-baseline="text-before-edge">test case doc,</text><text x="91.2159423828125" y="40" font-family="Virgil, Segoe UI Emoji" font-size="16px" fill="#1971c2" text-anchor="middle" style="white-space: pre;" direction="ltr" dominant-baseline="text-before-edge">only possible test case</text><text x="91.2159423828125" y="60" font-family="Virgil, Segoe UI Emoji" font-size="16px" fill="#1971c2" text-anchor="middle" style="white-space: pre;" direction="ltr" dominant-baseline="text-before-edge">with existing data,</text><text x="91.2159423828125" y="80" font-family="Virgil, Segoe UI Emoji" font-size="16px" fill="#1971c2" text-anchor="middle" style="white-space: pre;" direction="ltr" dominant-baseline="text-before-edge">dont force it</text></g><g transform="translate(1640.0772221883144 470.38931267147603) rotate(0 47.15996551513672 10)"><text x="47.15996551513672" y="0" font-family="Virgil, Segoe UI Emoji" font-size="16px" fill="#e03131" text-anchor="middle" style="white-space: pre;" direction="ltr" dominant-baseline="text-before-edge">issue arised</text></g><g transform="translate(1930.4103724161791 505.3892872401607) rotate(0 47.15996551513672 10)"><text x="47.15996551513672" y="0" font-family="Virgil, Segoe UI Emoji" font-size="16px" fill="#e03131" text-anchor="middle" style="white-space: pre;" direction="ltr" dominant-baseline="text-before-edge">issue arised</text></g><g transform="translate(2342.7435429890957 515.3892872401608) rotate(0 47.15996551513672 10)"><text x="47.15996551513672" y="0" font-family="Virgil, Segoe UI Emoji" font-size="16px" fill="#e03131" text-anchor="middle" style="white-space: pre;" direction="ltr" dominant-baseline="text-before-edge">issue arised</text></g><g transform="translate(2447.0772425333666 618.0559640793535) rotate(0 47.15996551513672 10)"><text x="47.15996551513672" y="0" font-family="Virgil, Segoe UI Emoji" font-size="16px" fill="#e03131" text-anchor="middle" style="white-space: pre;" direction="ltr" dominant-baseline="text-before-edge">issue arised</text></g><g stroke-linecap="round" transform="translate(2989.2371266682953 328.955874052498) rotate(0 122.66660563151027 55.099998474121094)"><path d="M27.55 0 C73.04 1.4, 111.46 2.08, 217.78 0 M27.55 0 C92.56 1.34, 154.22 0.37, 217.78 0 M217.78 0 C236.29 1.62, 244.12 12.9, 245.33 27.55 M217.78 0 C238.55 0.61, 247.68 9.81, 245.33 27.55 M245.33 27.55 C242.86 40.52, 244.66 56.56, 245.33 82.65 M245.33 27.55 C247.14 49.82, 245.51 72.72, 245.33 82.65 M245.33 82.65 C243.08 102.11, 233.43 110.26, 217.78 110.2 M245.33 82.65 C242.17 97.23, 232.43 106.41, 217.78 110.2 M217.78 110.2 C162.85 112.92, 102.68 110.93, 27.55 110.2 M217.78 110.2 C167.37 109.37, 117.86 108, 27.55 110.2 M27.55 110.2 C7.88 113, 1.86 102.24, 0 82.65 M27.55 110.2 C4.71 108.88, -0.22 96.9, 0 82.65 M0 82.65 C0.55 72.07, 0.29 57.46, 0 27.55 M0 82.65 C-1.14 66.53, 0.3 45.88, 0 27.55 M0 27.55 C-0.26 6.87, 8.91 -2.49, 27.55 0 M0 27.55 C1.97 10.61, 13.11 -1.63, 27.55 0" stroke="#1e1e1e" stroke-width="1" fill="none"></path></g><g transform="translate(3014.2717971801767 344.0558725266191) rotate(0 97.6319351196289 40)"><text x="97.6319351196289" y="0" font-family="Virgil, Segoe UI Emoji" font-size="16px" fill="#1e1e1e" text-anchor="middle" style="white-space: pre;" direction="ltr" dominant-baseline="text-before-edge">compile</text><text x="97.6319351196289" y="20" font-family="Virgil, Segoe UI Emoji" font-size="16px" fill="#1e1e1e" text-anchor="middle" style="white-space: pre;" direction="ltr" dominant-baseline="text-before-edge">INCIDENT REPORT and</text><text x="97.6319351196289" y="40" font-family="Virgil, Segoe UI Emoji" font-size="16px" fill="#1e1e1e" text-anchor="middle" style="white-space: pre;" direction="ltr" dominant-baseline="text-before-edge">ROOT CAUSE ANALYSIS</text><text x="97.6319351196289" y="60" font-family="Virgil, Segoe UI Emoji" font-size="16px" fill="#1e1e1e" text-anchor="middle" style="white-space: pre;" direction="ltr" dominant-baseline="text-before-edge">for lesson learned</text></g><g stroke-linecap="round"><g transform="translate(2803.237248738607 389.81549052555425) rotate(0 90 0.3559907428394524)"><path d="M0 0 C30 0.12, 150 0.59, 180 0.71 M0 0 C30 0.12, 150 0.59, 180 0.71" stroke="#1e1e1e" stroke-width="1" fill="none"></path></g><g transform="translate(2803.237248738607 389.81549052555425) rotate(0 90 0.3559907428394524)"><path d="M151.77 10.86 C158.88 8.3, 165.99 5.75, 180 0.71 M151.77 10.86 C157.62 8.76, 163.48 6.65, 180 0.71" stroke="#1e1e1e" stroke-width="1" fill="none"></path></g><g transform="translate(2803.237248738607 389.81549052555425) rotate(0 90 0.3559907428394524)"><path d="M151.85 -9.66 C158.94 -7.05, 166.03 -4.43, 180 0.71 M151.85 -9.66 C157.69 -7.51, 163.53 -5.36, 180 0.71" stroke="#1e1e1e" stroke-width="1" fill="none"></path></g></g><mask></mask></svg>