<svg version="1.1" xmlns="http://www.w3.org/2000/svg" viewBox="0 0 694.4000549316406 477.0000762939453" width="694.4000549316406" height="477.0000762939453">
  <!-- svg-source:excalidraw -->
  
  <defs>
    <style class="style-fonts">
      @font-face {
        font-family: "Virgil";
        src: url("https://file%2B.vscode-resource.vscode-cdn.net/d%3A/Tools/vsc/data/extensions/pomdtr.excalidraw-editor-3.7.1/public//dist/excalidraw-assets/Virgil.woff2");
      }
      @font-face {
        font-family: "Cascadia";
        src: url("https://file%2B.vscode-resource.vscode-cdn.net/d%3A/Tools/vsc/data/extensions/pomdtr.excalidraw-editor-3.7.1/public//dist/excalidraw-assets/Cascadia.woff2");
      }
      @font-face {
        font-family: "Assistant";
        src: url("https://file%2B.vscode-resource.vscode-cdn.net/d%3A/Tools/vsc/data/extensions/pomdtr.excalidraw-editor-3.7.1/public//dist/excalidraw-assets/Assistant-Regular.woff2");
      }
    </style>
    
  </defs>
  <rect x="0" y="0" width="694.4000549316406" height="477.0000762939453" fill="#ffffff"></rect><g stroke-linecap="round" transform="translate(10 10.999984741210938) rotate(0 337.2000274658203 19.5)"><path d="M9.75 0 C199.54 1.54, 387.56 1.91, 664.65 0 M9.75 0 C253.49 -2.16, 497.71 -2.51, 664.65 0 M664.65 0 C670.55 2, 675.05 3.08, 674.4 9.75 M664.65 0 C673.42 2.01, 672.27 4.59, 674.4 9.75 M674.4 9.75 C675.16 14.43, 672.61 19.48, 674.4 29.25 M674.4 9.75 C673.88 13.82, 674.98 19.45, 674.4 29.25 M674.4 29.25 C673.69 34.12, 672.05 40.45, 664.65 39 M674.4 29.25 C673.35 33.57, 670.01 39.18, 664.65 39 M664.65 39 C472.66 40.45, 281.01 40.19, 9.75 39 M664.65 39 C473.42 40.99, 282.71 40.88, 9.75 39 M9.75 39 C2.54 38.12, -0.71 37.6, 0 29.25 M9.75 39 C3.62 37.39, -1.06 36.31, 0 29.25 M0 29.25 C1.14 20.34, -1.26 13.67, 0 9.75 M0 29.25 C0.45 23.75, -0.75 20.26, 0 9.75 M0 9.75 C1.37 1.62, 2.51 -0.06, 9.75 0 M0 9.75 C-1.14 3.92, 5.44 -0.47, 9.75 0" stroke="#1e1e1e" stroke-width="2" fill="none"></path></g><g transform="translate(22.000030517578125 16.399978637695312) rotate(0 70.61994934082031 12.5)"><text x="0" y="0" font-family="Comic Sans MS, Segoe UI Emoji" font-size="20px" fill="#e03131" text-anchor="start" style="white-space: pre;" direction="ltr" dominant-baseline="text-before-edge">.NET WinForms</text></g><g transform="translate(186.810073852539 17.5) rotate(0 74.30994415283203 12.5)"><text x="0" y="0" font-family="Comic Sans MS, Segoe UI Emoji" font-size="20px" fill="#2f9e44" text-anchor="start" style="white-space: pre;" direction="ltr" dominant-baseline="text-before-edge">.NET WebForms</text></g><g transform="translate(349.50503540039057 18.79998779296875) rotate(0 71.58995056152344 12.5)"><text x="0" y="0" font-family="Comic Sans MS, Segoe UI Emoji" font-size="20px" fill="#1971c2" text-anchor="start" style="white-space: pre;" direction="ltr" dominant-baseline="text-before-edge">.NET ASP-MVC</text></g><g transform="translate(507.60000610351557 19.199981689453125) rotate(0 81.76992797851562 12.5)"><text x="0" y="0" font-family="Comic Sans MS, Segoe UI Emoji" font-size="20px" fill="#f08c00" text-anchor="start" style="white-space: pre;" direction="ltr" dominant-baseline="text-before-edge">.NET Cross-Plat</text></g><g stroke-linecap="round" transform="translate(342.00003051757807 10) rotate(0 80.39999389648438 228.50003814697266)"><path d="M32 0 C60.55 1.47, 87.53 -0.03, 128.8 0 M32 0 C56.77 -0.51, 80.66 -0.33, 128.8 0 M128.8 0 C151.74 -1.77, 158.96 9.69, 160.8 32 M128.8 0 C149.05 0.93, 161.4 11.8, 160.8 32 M160.8 32 C159.77 169.43, 160.57 307.77, 160.8 425 M160.8 32 C159.65 125.3, 158.8 218.87, 160.8 425 M160.8 425 C161.35 444.84, 149.65 457.82, 128.8 457 M160.8 425 C161.45 447.48, 152.25 455.51, 128.8 457 M128.8 457 C107.66 458.67, 86.35 457.9, 32 457 M128.8 457 C92.56 457.48, 56.32 457.5, 32 457 M32 457 C11.3 456.79, -0.19 445.27, 0 425 M32 457 C11 456.33, -1.16 446.66, 0 425 M0 425 C-2.56 300.82, -1.66 174.05, 0 32 M0 425 C-0.95 339.52, -1.26 252.89, 0 32 M0 32 C-0.93 9.31, 11.26 0.3, 32 0 M0 32 C1.98 12.65, 9.59 -1.74, 32 0" stroke="#1e1e1e" stroke-width="2" fill="none"></path></g><g transform="translate(401.9650039672851 270.1499786376953) rotate(0 19.129981994628906 12.5)"><text x="0" y="0" font-family="Comic Sans MS, Segoe UI Emoji" font-size="20px" fill="#1971c2" text-anchor="start" style="white-space: pre;" direction="ltr" dominant-baseline="text-before-edge">CSP</text></g><g transform="translate(400.4150009155273 305.9499969482422) rotate(0 20.67998504638672 12.5)"><text x="0" y="0" font-family="Comic Sans MS, Segoe UI Emoji" font-size="20px" fill="#1971c2" text-anchor="start" style="white-space: pre;" direction="ltr" dominant-baseline="text-before-edge">CDN</text></g><g transform="translate(349.50502777099604 228.7499542236328) rotate(0 71.58995819091797 12.5)"><text x="0" y="0" font-family="Comic Sans MS, Segoe UI Emoji" font-size="20px" fill="#1971c2" text-anchor="start" style="white-space: pre;" direction="ltr" dominant-baseline="text-before-edge">Load Balancer</text></g><g transform="translate(391.9750137329101 67.74996948242188) rotate(0 29.119972229003906 12.5)"><text x="0" y="0" font-family="Comic Sans MS, Segoe UI Emoji" font-size="20px" fill="#1971c2" text-anchor="start" style="white-space: pre;" direction="ltr" dominant-baseline="text-before-edge">Route</text></g><g transform="translate(369.23503112792963 106.35000610351562) rotate(0 51.859954833984375 12.5)"><text x="0" y="0" font-family="Comic Sans MS, Segoe UI Emoji" font-size="20px" fill="#1971c2" text-anchor="start" style="white-space: pre;" direction="ltr" dominant-baseline="text-before-edge">Middleware</text></g><g transform="translate(402.95500183105463 337.15003967285156) rotate(0 18.139984130859375 12.5)"><text x="0" y="0" font-family="Comic Sans MS, Segoe UI Emoji" font-size="20px" fill="#1971c2" text-anchor="start" style="white-space: pre;" direction="ltr" dominant-baseline="text-before-edge">XSS</text></g><g transform="translate(364.0750427246093 374.3500213623047) rotate(0 57.01994323730469 37.5)"><text x="57.01994323730469" y="0" font-family="Comic Sans MS, Segoe UI Emoji" font-size="20px" fill="#1971c2" text-anchor="middle" style="white-space: pre;" direction="ltr" dominant-baseline="text-before-edge">Vulnerability</text><text x="57.01994323730469" y="25" font-family="Comic Sans MS, Segoe UI Emoji" font-size="20px" fill="#1971c2" text-anchor="middle" style="white-space: pre;" direction="ltr" dominant-baseline="text-before-edge">and</text><text x="57.01994323730469" y="50" font-family="Comic Sans MS, Segoe UI Emoji" font-size="20px" fill="#1971c2" text-anchor="middle" style="white-space: pre;" direction="ltr" dominant-baseline="text-before-edge">Penetration</text></g><g transform="translate(360.48503875732416 149.5499725341797) rotate(0 60.609947204589844 12.5)"><text x="0" y="0" font-family="Comic Sans MS, Segoe UI Emoji" font-size="20px" fill="#1971c2" text-anchor="start" style="white-space: pre;" direction="ltr" dominant-baseline="text-before-edge">Action Filter</text></g><g transform="translate(349.2450561523437 191.1499786376953) rotate(0 71.84992980957031 12.5)"><text x="0" y="0" font-family="Comic Sans MS, Segoe UI Emoji" font-size="20px" fill="#1971c2" text-anchor="start" style="white-space: pre;" direction="ltr" dominant-baseline="text-before-edge">Response Type</text></g></svg>